<svg width="216" height="191" viewBox="0 0 216 191" fill="none" xmlns="http://www.w3.org/2000/svg">
<path d="M212.767 118.603C198.341 169.763 139.735 200.899 81.8642 188.141C24.0173 175.386 -11.1979 123.566 3.23515 72.4079C17.6547 21.2414 76.2611 -9.89733 134.115 2.85781C191.982 15.6129 227.194 67.4391 212.767 118.603H212.767H212.767Z" fill="#F7931A"/>
<path d="M155.623 81.8952C157.773 69.1879 146.83 62.3567 131.867 57.7996L136.721 40.5859L124.87 37.9746L120.144 54.7347C117.029 54.0482 113.829 53.4007 110.649 52.7591L115.409 35.8885L103.564 33.2772L98.7073 50.4849C96.1285 49.9656 93.597 49.4523 91.1398 48.9122L91.1532 48.8584L74.8097 45.2503L71.6572 56.4416C71.6572 56.4416 80.45 58.2232 80.2643 58.3337C85.064 59.3931 85.9315 62.2014 85.7863 64.4277L80.2575 84.0379C80.5882 84.1125 81.017 84.2199 81.4895 84.387C81.0945 84.3005 80.6726 84.205 80.2372 84.1124L72.4874 111.583C71.9001 112.873 70.4116 114.806 67.0564 114.072C67.1746 114.224 58.4425 112.171 58.4425 112.171L52.5592 124.165L67.9812 127.565C70.8503 128.2 73.662 128.866 76.4297 129.492L71.5253 146.903L83.3627 149.514L88.2198 132.289C91.4534 133.065 94.5925 133.781 97.6641 134.456L92.8238 151.601L104.675 154.212L109.579 136.834C129.787 140.215 144.983 138.851 151.38 122.691C156.534 109.679 151.123 102.174 140.491 97.2794C148.234 95.7007 154.066 91.1973 155.622 81.8951L155.623 81.8952V81.8952ZM128.545 115.466C124.883 128.478 100.105 121.444 92.0713 119.68L98.579 96.6139C106.612 98.3866 132.373 101.896 128.545 115.466V115.466L128.545 115.466ZM132.211 81.7072C128.869 93.5431 108.246 87.5296 101.556 86.0553L107.456 65.135C114.146 66.6093 135.691 69.3608 132.211 81.7071V81.7072Z" fill="white"/>
</svg>
