<svg width="171" height="70" viewBox="0 0 171 70" fill="none" xmlns="http://www.w3.org/2000/svg">
<path d="M53.328 14.264C54.288 14.568 55.04 15.08 55.584 15.8C56.128 16.504 56.4 17.376 56.4 18.416C56.4 19.888 55.824 21.024 54.672 21.824C53.536 22.608 51.872 23 49.68 23H40.992V6.2H49.2C51.248 6.2 52.816 6.592 53.904 7.376C55.008 8.16 55.56 9.224 55.56 10.568C55.56 11.384 55.36 12.112 54.96 12.752C54.576 13.392 54.032 13.896 53.328 14.264ZM44.856 9.128V13.088H48.72C49.68 13.088 50.408 12.92 50.904 12.584C51.4 12.248 51.648 11.752 51.648 11.096C51.648 10.44 51.4 9.952 50.904 9.632C50.408 9.296 49.68 9.128 48.72 9.128H44.856ZM49.392 20.072C50.416 20.072 51.184 19.904 51.696 19.568C52.224 19.232 52.488 18.712 52.488 18.008C52.488 16.616 51.456 15.92 49.392 15.92H44.856V20.072H49.392ZM62.5892 9.368H57.2132V6.2H71.8532V9.368H66.4772V23H62.5892V9.368ZM81.7508 23.288C80.0388 23.288 78.4868 22.92 77.0948 22.184C75.7188 21.432 74.6308 20.4 73.8308 19.088C73.0468 17.76 72.6548 16.264 72.6548 14.6C72.6548 12.936 73.0468 11.448 73.8308 10.136C74.6308 8.808 75.7188 7.776 77.0948 7.04C78.4868 6.288 80.0468 5.912 81.7748 5.912C83.2308 5.912 84.5428 6.168 85.7108 6.68C86.8948 7.192 87.8868 7.928 88.6868 8.888L86.1908 11.192C85.0548 9.88 83.6468 9.224 81.9668 9.224C80.9268 9.224 79.9988 9.456 79.1828 9.92C78.3668 10.368 77.7268 11 77.2628 11.816C76.8148 12.632 76.5908 13.56 76.5908 14.6C76.5908 15.64 76.8148 16.568 77.2628 17.384C77.7268 18.2 78.3668 18.84 79.1828 19.304C79.9988 19.752 80.9268 19.976 81.9668 19.976C83.6468 19.976 85.0548 19.312 86.1908 17.984L88.6868 20.288C87.8868 21.264 86.8948 22.008 85.7108 22.52C84.5268 23.032 83.2068 23.288 81.7508 23.288Z" fill="white"/>
<path d="M39.792 64V61.48L46.272 55.36C46.784 54.896 47.16 54.48 47.4 54.112C47.64 53.744 47.8 53.408 47.88 53.104C47.976 52.8 48.024 52.52 48.024 52.264C48.024 51.592 47.792 51.08 47.328 50.728C46.88 50.36 46.216 50.176 45.336 50.176C44.632 50.176 43.976 50.312 43.368 50.584C42.776 50.856 42.272 51.28 41.856 51.856L39.024 50.032C39.664 49.072 40.56 48.312 41.712 47.752C42.864 47.192 44.192 46.912 45.696 46.912C46.944 46.912 48.032 47.12 48.96 47.536C49.904 47.936 50.632 48.504 51.144 49.24C51.672 49.976 51.936 50.856 51.936 51.88C51.936 52.424 51.864 52.968 51.72 53.512C51.592 54.04 51.32 54.6 50.904 55.192C50.504 55.784 49.912 56.448 49.128 57.184L43.752 62.248L43.008 60.832H52.488V64H39.792ZM59.5403 64.288C58.3723 64.288 57.2123 64.136 56.0603 63.832C54.9083 63.512 53.9323 63.064 53.1322 62.488L54.6443 59.512C55.2843 59.976 56.0283 60.344 56.8763 60.616C57.7243 60.888 58.5803 61.024 59.4443 61.024C60.4203 61.024 61.1883 60.832 61.7483 60.448C62.3083 60.064 62.5883 59.536 62.5883 58.864C62.5883 58.224 62.3403 57.72 61.8443 57.352C61.3483 56.984 60.5483 56.8 59.4443 56.8H57.6683V54.232L62.3483 48.928L62.7803 50.32H53.9723V47.2H65.7323V49.72L61.0763 55.024L59.1083 53.896H60.2363C62.3003 53.896 63.8603 54.36 64.9163 55.288C65.9723 56.216 66.5003 57.408 66.5003 58.864C66.5003 59.808 66.2523 60.696 65.7563 61.528C65.2603 62.344 64.5003 63.008 63.4763 63.52C62.4523 64.032 61.1403 64.288 59.5403 64.288ZM70.5034 64.192C69.8634 64.192 69.3114 63.976 68.8474 63.544C68.3994 63.096 68.1754 62.528 68.1754 61.84C68.1754 61.152 68.3994 60.6 68.8474 60.184C69.3114 59.752 69.8634 59.536 70.5034 59.536C71.1594 59.536 71.7114 59.752 72.1594 60.184C72.6074 60.6 72.8314 61.152 72.8314 61.84C72.8314 62.528 72.6074 63.096 72.1594 63.544C71.7114 63.976 71.1594 64.192 70.5034 64.192ZM81.4719 64.288C80.0959 64.288 78.8639 63.952 77.7759 63.28C76.6879 62.592 75.8319 61.6 75.2079 60.304C74.5839 59.008 74.2719 57.44 74.2719 55.6C74.2719 53.76 74.5839 52.192 75.2079 50.896C75.8319 49.6 76.6879 48.616 77.7759 47.944C78.8639 47.256 80.0959 46.912 81.4719 46.912C82.8639 46.912 84.0959 47.256 85.1679 47.944C86.2559 48.616 87.1119 49.6 87.7359 50.896C88.3599 52.192 88.6719 53.76 88.6719 55.6C88.6719 57.44 88.3599 59.008 87.7359 60.304C87.1119 61.6 86.2559 62.592 85.1679 63.28C84.0959 63.952 82.8639 64.288 81.4719 64.288ZM81.4719 61C82.1279 61 82.6959 60.816 83.1759 60.448C83.6719 60.08 84.0559 59.496 84.3279 58.696C84.6159 57.896 84.7599 56.864 84.7599 55.6C84.7599 54.336 84.6159 53.304 84.3279 52.504C84.0559 51.704 83.6719 51.12 83.1759 50.752C82.6959 50.384 82.1279 50.2 81.4719 50.2C80.8319 50.2 80.2639 50.384 79.7679 50.752C79.2879 51.12 78.9039 51.704 78.6159 52.504C78.3439 53.304 78.2079 54.336 78.2079 55.6C78.2079 56.864 78.3439 57.896 78.6159 58.696C78.9039 59.496 79.2879 60.08 79.7679 60.448C80.2639 60.816 80.8319 61 81.4719 61ZM97.521 64.288C96.113 64.288 94.881 64.08 93.825 63.664C92.769 63.232 91.945 62.632 91.353 61.864C90.761 61.08 90.465 60.168 90.465 59.128C90.465 58.088 90.753 57.208 91.329 56.488C91.921 55.752 92.745 55.2 93.801 54.832C94.857 54.448 96.097 54.256 97.521 54.256C98.961 54.256 100.209 54.448 101.265 54.832C102.337 55.2 103.161 55.752 103.737 56.488C104.329 57.208 104.625 58.088 104.625 59.128C104.625 60.168 104.329 61.08 103.737 61.864C103.145 62.632 102.313 63.232 101.241 63.664C100.185 64.08 98.945 64.288 97.521 64.288ZM97.521 61.432C98.497 61.432 99.265 61.216 99.825 60.784C100.401 60.352 100.689 59.76 100.689 59.008C100.689 58.256 100.401 57.672 99.825 57.256C99.265 56.824 98.497 56.608 97.521 56.608C96.561 56.608 95.801 56.824 95.241 57.256C94.681 57.672 94.401 58.256 94.401 59.008C94.401 59.76 94.681 60.352 95.241 60.784C95.801 61.216 96.561 61.432 97.521 61.432ZM97.521 56.224C96.225 56.224 95.089 56.048 94.113 55.696C93.153 55.344 92.401 54.832 91.857 54.16C91.329 53.472 91.065 52.656 91.065 51.712C91.065 50.72 91.337 49.872 91.881 49.168C92.425 48.448 93.185 47.896 94.161 47.512C95.137 47.112 96.257 46.912 97.521 46.912C98.817 46.912 99.945 47.112 100.905 47.512C101.881 47.896 102.641 48.448 103.185 49.168C103.745 49.872 104.025 50.72 104.025 51.712C104.025 52.656 103.753 53.472 103.209 54.16C102.681 54.832 101.929 55.344 100.953 55.696C99.977 56.048 98.833 56.224 97.521 56.224ZM97.521 53.944C98.337 53.944 98.977 53.76 99.441 53.392C99.921 53.024 100.161 52.52 100.161 51.88C100.161 51.208 99.913 50.688 99.417 50.32C98.937 49.952 98.305 49.768 97.521 49.768C96.753 49.768 96.129 49.952 95.649 50.32C95.169 50.688 94.929 51.208 94.929 51.88C94.929 52.52 95.161 53.024 95.625 53.392C96.089 53.76 96.721 53.944 97.521 53.944ZM113.605 64.288C112.229 64.288 110.997 63.952 109.909 63.28C108.821 62.592 107.965 61.6 107.341 60.304C106.717 59.008 106.405 57.44 106.405 55.6C106.405 53.76 106.717 52.192 107.341 50.896C107.965 49.6 108.821 48.616 109.909 47.944C110.997 47.256 112.229 46.912 113.605 46.912C114.997 46.912 116.229 47.256 117.301 47.944C118.389 48.616 119.245 49.6 119.869 50.896C120.493 52.192 120.805 53.76 120.805 55.6C120.805 57.44 120.493 59.008 119.869 60.304C119.245 61.6 118.389 62.592 117.301 63.28C116.229 63.952 114.997 64.288 113.605 64.288ZM113.605 61C114.261 61 114.829 60.816 115.309 60.448C115.805 60.08 116.189 59.496 116.461 58.696C116.749 57.896 116.893 56.864 116.893 55.6C116.893 54.336 116.749 53.304 116.461 52.504C116.189 51.704 115.805 51.12 115.309 50.752C114.829 50.384 114.261 50.2 113.605 50.2C112.965 50.2 112.397 50.384 111.901 50.752C111.421 51.12 111.037 51.704 110.749 52.504C110.477 53.304 110.341 54.336 110.341 55.6C110.341 56.864 110.477 57.896 110.749 58.696C111.037 59.496 111.421 60.08 111.901 60.448C112.397 60.816 112.965 61 113.605 61ZM122.533 67.696L124.117 61.936L124.645 64.096C123.957 64.096 123.389 63.896 122.941 63.496C122.509 63.096 122.293 62.544 122.293 61.84C122.293 61.136 122.517 60.576 122.965 60.16C123.413 59.744 123.965 59.536 124.621 59.536C125.293 59.536 125.845 59.752 126.277 60.184C126.709 60.6 126.925 61.152 126.925 61.84C126.925 62.048 126.909 62.256 126.877 62.464C126.845 62.656 126.781 62.896 126.685 63.184C126.605 63.456 126.469 63.808 126.277 64.24L124.909 67.696H122.533ZM134.353 64.288C133.185 64.288 132.025 64.136 130.873 63.832C129.721 63.512 128.745 63.064 127.945 62.488L129.457 59.512C130.097 59.976 130.841 60.344 131.689 60.616C132.537 60.888 133.393 61.024 134.257 61.024C135.233 61.024 136.001 60.832 136.561 60.448C137.121 60.064 137.401 59.536 137.401 58.864C137.401 58.224 137.153 57.72 136.657 57.352C136.161 56.984 135.361 56.8 134.257 56.8H132.481V54.232L137.161 48.928L137.593 50.32H128.785V47.2H140.545V49.72L135.889 55.024L133.921 53.896H135.049C137.113 53.896 138.673 54.36 139.729 55.288C140.785 56.216 141.313 57.408 141.313 58.864C141.313 59.808 141.065 60.696 140.569 61.528C140.073 62.344 139.313 63.008 138.289 63.52C137.265 64.032 135.953 64.288 134.353 64.288ZM155.617 66.88V44.32H158.017V66.88H155.617ZM156.481 64.288C155.137 64.288 153.849 64.112 152.617 63.76C151.385 63.392 150.393 62.92 149.641 62.344L150.961 59.416C151.681 59.928 152.529 60.352 153.505 60.688C154.497 61.008 155.497 61.168 156.505 61.168C157.273 61.168 157.889 61.096 158.353 60.952C158.833 60.792 159.185 60.576 159.409 60.304C159.633 60.032 159.745 59.72 159.745 59.368C159.745 58.92 159.569 58.568 159.217 58.312C158.865 58.04 158.401 57.824 157.825 57.664C157.249 57.488 156.609 57.328 155.905 57.184C155.217 57.024 154.521 56.832 153.817 56.608C153.129 56.384 152.497 56.096 151.921 55.744C151.345 55.392 150.873 54.928 150.505 54.352C150.153 53.776 149.977 53.04 149.977 52.144C149.977 51.184 150.233 50.312 150.745 49.528C151.273 48.728 152.057 48.096 153.097 47.632C154.153 47.152 155.473 46.912 157.057 46.912C158.113 46.912 159.153 47.04 160.177 47.296C161.201 47.536 162.105 47.904 162.889 48.4L161.689 51.352C160.905 50.904 160.121 50.576 159.337 50.368C158.553 50.144 157.785 50.032 157.033 50.032C156.281 50.032 155.665 50.12 155.185 50.296C154.705 50.472 154.361 50.704 154.153 50.992C153.945 51.264 153.841 51.584 153.841 51.952C153.841 52.384 154.017 52.736 154.369 53.008C154.721 53.264 155.185 53.472 155.761 53.632C156.337 53.792 156.969 53.952 157.657 54.112C158.361 54.272 159.057 54.456 159.745 54.664C160.449 54.872 161.089 55.152 161.665 55.504C162.241 55.856 162.705 56.32 163.057 56.896C163.425 57.472 163.609 58.2 163.609 59.08C163.609 60.024 163.345 60.888 162.817 61.672C162.289 62.456 161.497 63.088 160.441 63.568C159.401 64.048 158.081 64.288 156.481 64.288Z" fill="white"/>
<path d="M16.6988 30.9091C17.0466 28.5805 15.2737 27.3288 12.8494 26.4937L13.6358 23.3393L11.7152 22.8608L10.9495 25.932C10.4453 25.8063 9.92688 25.6876 9.41172 25.57L10.1828 22.4785L8.26383 22L7.47688 25.1533C7.05906 25.0581 6.64891 24.9641 6.25078 24.8651L6.25297 24.8552L3.605 24.1941L3.09422 26.2448C3.09422 26.2448 4.51883 26.5713 4.48875 26.5916C5.26641 26.7857 5.4075 27.3003 5.38344 27.7083L4.48766 31.3018C4.54125 31.3155 4.6107 31.3352 4.68727 31.3658L4.48492 31.3155L3.22875 36.3495C3.13359 36.5857 2.89242 36.9401 2.34883 36.8055C2.36797 36.8334 0.953204 36.4572 0.953204 36.4572L0 38.6556L2.49922 39.2785C2.96406 39.395 3.41961 39.517 3.8675 39.6318L3.07289 42.8228L4.99078 43.3013L5.77828 40.1448C6.30164 40.287 6.81024 40.4182 7.30789 40.5418L6.52367 43.6836L8.44375 44.1621L9.23836 40.9777C12.5125 41.5973 14.9751 41.3473 16.0103 38.3866C16.8454 36.0022 15.9693 34.6268 14.2466 33.7294C15.5012 33.439 16.4462 32.6138 16.6983 30.9091H16.6988ZM12.3113 37.0609C11.7173 39.4453 7.70328 38.1569 6.40117 37.8331L7.45555 33.6063C8.75711 33.9312 12.9303 34.5743 12.3118 37.0609H12.3113ZM12.9046 30.8747C12.3632 33.0436 9.0218 31.9416 7.93735 31.6715L8.89328 27.8379C9.97774 28.108 13.469 28.6123 12.9046 30.8747V30.8747Z" fill="black"/>
</svg>
