<svg width="180" height="70" viewBox="0 0 180 70" fill="none" xmlns="http://www.w3.org/2000/svg">
<path d="M62.328 14.264C63.288 14.568 64.04 15.08 64.584 15.8C65.128 16.504 65.4 17.376 65.4 18.416C65.4 19.888 64.824 21.024 63.672 21.824C62.536 22.608 60.872 23 58.68 23H49.992V6.2H58.2C60.248 6.2 61.816 6.592 62.904 7.376C64.008 8.16 64.56 9.224 64.56 10.568C64.56 11.384 64.36 12.112 63.96 12.752C63.576 13.392 63.032 13.896 62.328 14.264ZM53.856 9.128V13.088H57.72C58.68 13.088 59.408 12.92 59.904 12.584C60.4 12.248 60.648 11.752 60.648 11.096C60.648 10.44 60.4 9.952 59.904 9.632C59.408 9.296 58.68 9.128 57.72 9.128H53.856ZM58.392 20.072C59.416 20.072 60.184 19.904 60.696 19.568C61.224 19.232 61.488 18.712 61.488 18.008C61.488 16.616 60.456 15.92 58.392 15.92H53.856V20.072H58.392ZM71.5892 9.368H66.2132V6.2H80.8532V9.368H75.4772V23H71.5892V9.368ZM90.7508 23.288C89.0388 23.288 87.4868 22.92 86.0948 22.184C84.7188 21.432 83.6308 20.4 82.8308 19.088C82.0468 17.76 81.6548 16.264 81.6548 14.6C81.6548 12.936 82.0468 11.448 82.8308 10.136C83.6308 8.808 84.7188 7.776 86.0948 7.04C87.4868 6.288 89.0468 5.912 90.7748 5.912C92.2308 5.912 93.5428 6.168 94.7108 6.68C95.8948 7.192 96.8868 7.928 97.6868 8.888L95.1908 11.192C94.0548 9.88 92.6468 9.224 90.9668 9.224C89.9268 9.224 88.9988 9.456 88.1828 9.92C87.3668 10.368 86.7268 11 86.2628 11.816C85.8148 12.632 85.5908 13.56 85.5908 14.6C85.5908 15.64 85.8148 16.568 86.2628 17.384C86.7268 18.2 87.3668 18.84 88.1828 19.304C88.9988 19.752 89.9268 19.976 90.9668 19.976C92.6468 19.976 94.0548 19.312 95.1908 17.984L97.6868 20.288C96.8868 21.264 95.8948 22.008 94.7108 22.52C93.5268 23.032 92.2068 23.288 90.7508 23.288Z" fill="white"/>
<path d="M48.792 64V61.48L55.272 55.36C55.784 54.896 56.16 54.48 56.4 54.112C56.64 53.744 56.8 53.408 56.88 53.104C56.976 52.8 57.024 52.52 57.024 52.264C57.024 51.592 56.792 51.08 56.328 50.728C55.88 50.36 55.216 50.176 54.336 50.176C53.632 50.176 52.976 50.312 52.368 50.584C51.776 50.856 51.272 51.28 50.856 51.856L48.024 50.032C48.664 49.072 49.56 48.312 50.712 47.752C51.864 47.192 53.192 46.912 54.696 46.912C55.944 46.912 57.032 47.12 57.96 47.536C58.904 47.936 59.632 48.504 60.144 49.24C60.672 49.976 60.936 50.856 60.936 51.88C60.936 52.424 60.864 52.968 60.72 53.512C60.592 54.04 60.32 54.6 59.904 55.192C59.504 55.784 58.912 56.448 58.128 57.184L52.752 62.248L52.008 60.832H61.488V64H48.792ZM68.5403 64.288C67.3723 64.288 66.2123 64.136 65.0603 63.832C63.9083 63.512 62.9323 63.064 62.1322 62.488L63.6443 59.512C64.2843 59.976 65.0283 60.344 65.8763 60.616C66.7243 60.888 67.5803 61.024 68.4443 61.024C69.4203 61.024 70.1883 60.832 70.7483 60.448C71.3083 60.064 71.5883 59.536 71.5883 58.864C71.5883 58.224 71.3403 57.72 70.8443 57.352C70.3483 56.984 69.5483 56.8 68.4443 56.8H66.6683V54.232L71.3483 48.928L71.7803 50.32H62.9723V47.2H74.7323V49.72L70.0763 55.024L68.1083 53.896H69.2363C71.3003 53.896 72.8603 54.36 73.9163 55.288C74.9723 56.216 75.5003 57.408 75.5003 58.864C75.5003 59.808 75.2523 60.696 74.7563 61.528C74.2603 62.344 73.5003 63.008 72.4763 63.52C71.4523 64.032 70.1403 64.288 68.5403 64.288ZM79.5034 64.192C78.8634 64.192 78.3114 63.976 77.8474 63.544C77.3994 63.096 77.1754 62.528 77.1754 61.84C77.1754 61.152 77.3994 60.6 77.8474 60.184C78.3114 59.752 78.8634 59.536 79.5034 59.536C80.1594 59.536 80.7114 59.752 81.1594 60.184C81.6074 60.6 81.8314 61.152 81.8314 61.84C81.8314 62.528 81.6074 63.096 81.1594 63.544C80.7114 63.976 80.1594 64.192 79.5034 64.192ZM90.4719 64.288C89.0959 64.288 87.8639 63.952 86.7759 63.28C85.6879 62.592 84.8319 61.6 84.2079 60.304C83.5839 59.008 83.2719 57.44 83.2719 55.6C83.2719 53.76 83.5839 52.192 84.2079 50.896C84.8319 49.6 85.6879 48.616 86.7759 47.944C87.8639 47.256 89.0959 46.912 90.4719 46.912C91.8639 46.912 93.0959 47.256 94.1679 47.944C95.2559 48.616 96.1119 49.6 96.7359 50.896C97.3599 52.192 97.6719 53.76 97.6719 55.6C97.6719 57.44 97.3599 59.008 96.7359 60.304C96.1119 61.6 95.2559 62.592 94.1679 63.28C93.0959 63.952 91.8639 64.288 90.4719 64.288ZM90.4719 61C91.1279 61 91.6959 60.816 92.1759 60.448C92.6719 60.08 93.0559 59.496 93.3279 58.696C93.6159 57.896 93.7599 56.864 93.7599 55.6C93.7599 54.336 93.6159 53.304 93.3279 52.504C93.0559 51.704 92.6719 51.12 92.1759 50.752C91.6959 50.384 91.1279 50.2 90.4719 50.2C89.8319 50.2 89.2639 50.384 88.7679 50.752C88.2879 51.12 87.9039 51.704 87.6159 52.504C87.3439 53.304 87.2079 54.336 87.2079 55.6C87.2079 56.864 87.3439 57.896 87.6159 58.696C87.9039 59.496 88.2879 60.08 88.7679 60.448C89.2639 60.816 89.8319 61 90.4719 61ZM106.521 64.288C105.113 64.288 103.881 64.08 102.825 63.664C101.769 63.232 100.945 62.632 100.353 61.864C99.761 61.08 99.465 60.168 99.465 59.128C99.465 58.088 99.753 57.208 100.329 56.488C100.921 55.752 101.745 55.2 102.801 54.832C103.857 54.448 105.097 54.256 106.521 54.256C107.961 54.256 109.209 54.448 110.265 54.832C111.337 55.2 112.161 55.752 112.737 56.488C113.329 57.208 113.625 58.088 113.625 59.128C113.625 60.168 113.329 61.08 112.737 61.864C112.145 62.632 111.313 63.232 110.241 63.664C109.185 64.08 107.945 64.288 106.521 64.288ZM106.521 61.432C107.497 61.432 108.265 61.216 108.825 60.784C109.401 60.352 109.689 59.76 109.689 59.008C109.689 58.256 109.401 57.672 108.825 57.256C108.265 56.824 107.497 56.608 106.521 56.608C105.561 56.608 104.801 56.824 104.241 57.256C103.681 57.672 103.401 58.256 103.401 59.008C103.401 59.76 103.681 60.352 104.241 60.784C104.801 61.216 105.561 61.432 106.521 61.432ZM106.521 56.224C105.225 56.224 104.089 56.048 103.113 55.696C102.153 55.344 101.401 54.832 100.857 54.16C100.329 53.472 100.065 52.656 100.065 51.712C100.065 50.72 100.337 49.872 100.881 49.168C101.425 48.448 102.185 47.896 103.161 47.512C104.137 47.112 105.257 46.912 106.521 46.912C107.817 46.912 108.945 47.112 109.905 47.512C110.881 47.896 111.641 48.448 112.185 49.168C112.745 49.872 113.025 50.72 113.025 51.712C113.025 52.656 112.753 53.472 112.209 54.16C111.681 54.832 110.929 55.344 109.953 55.696C108.977 56.048 107.833 56.224 106.521 56.224ZM106.521 53.944C107.337 53.944 107.977 53.76 108.441 53.392C108.921 53.024 109.161 52.52 109.161 51.88C109.161 51.208 108.913 50.688 108.417 50.32C107.937 49.952 107.305 49.768 106.521 49.768C105.753 49.768 105.129 49.952 104.649 50.32C104.169 50.688 103.929 51.208 103.929 51.88C103.929 52.52 104.161 53.024 104.625 53.392C105.089 53.76 105.721 53.944 106.521 53.944ZM122.605 64.288C121.229 64.288 119.997 63.952 118.909 63.28C117.821 62.592 116.965 61.6 116.341 60.304C115.717 59.008 115.405 57.44 115.405 55.6C115.405 53.76 115.717 52.192 116.341 50.896C116.965 49.6 117.821 48.616 118.909 47.944C119.997 47.256 121.229 46.912 122.605 46.912C123.997 46.912 125.229 47.256 126.301 47.944C127.389 48.616 128.245 49.6 128.869 50.896C129.493 52.192 129.805 53.76 129.805 55.6C129.805 57.44 129.493 59.008 128.869 60.304C128.245 61.6 127.389 62.592 126.301 63.28C125.229 63.952 123.997 64.288 122.605 64.288ZM122.605 61C123.261 61 123.829 60.816 124.309 60.448C124.805 60.08 125.189 59.496 125.461 58.696C125.749 57.896 125.893 56.864 125.893 55.6C125.893 54.336 125.749 53.304 125.461 52.504C125.189 51.704 124.805 51.12 124.309 50.752C123.829 50.384 123.261 50.2 122.605 50.2C121.965 50.2 121.397 50.384 120.901 50.752C120.421 51.12 120.037 51.704 119.749 52.504C119.477 53.304 119.341 54.336 119.341 55.6C119.341 56.864 119.477 57.896 119.749 58.696C120.037 59.496 120.421 60.08 120.901 60.448C121.397 60.816 121.965 61 122.605 61ZM131.533 67.696L133.117 61.936L133.645 64.096C132.957 64.096 132.389 63.896 131.941 63.496C131.509 63.096 131.293 62.544 131.293 61.84C131.293 61.136 131.517 60.576 131.965 60.16C132.413 59.744 132.965 59.536 133.621 59.536C134.293 59.536 134.845 59.752 135.277 60.184C135.709 60.6 135.925 61.152 135.925 61.84C135.925 62.048 135.909 62.256 135.877 62.464C135.845 62.656 135.781 62.896 135.685 63.184C135.605 63.456 135.469 63.808 135.277 64.24L133.909 67.696H131.533ZM143.353 64.288C142.185 64.288 141.025 64.136 139.873 63.832C138.721 63.512 137.745 63.064 136.945 62.488L138.457 59.512C139.097 59.976 139.841 60.344 140.689 60.616C141.537 60.888 142.393 61.024 143.257 61.024C144.233 61.024 145.001 60.832 145.561 60.448C146.121 60.064 146.401 59.536 146.401 58.864C146.401 58.224 146.153 57.72 145.657 57.352C145.161 56.984 144.361 56.8 143.257 56.8H141.481V54.232L146.161 48.928L146.593 50.32H137.785V47.2H149.545V49.72L144.889 55.024L142.921 53.896H144.049C146.113 53.896 147.673 54.36 148.729 55.288C149.785 56.216 150.313 57.408 150.313 58.864C150.313 59.808 150.065 60.696 149.569 61.528C149.073 62.344 148.313 63.008 147.289 63.52C146.265 64.032 144.953 64.288 143.353 64.288ZM164.617 66.88V44.32H167.017V66.88H164.617ZM165.481 64.288C164.137 64.288 162.849 64.112 161.617 63.76C160.385 63.392 159.393 62.92 158.641 62.344L159.961 59.416C160.681 59.928 161.529 60.352 162.505 60.688C163.497 61.008 164.497 61.168 165.505 61.168C166.273 61.168 166.889 61.096 167.353 60.952C167.833 60.792 168.185 60.576 168.409 60.304C168.633 60.032 168.745 59.72 168.745 59.368C168.745 58.92 168.569 58.568 168.217 58.312C167.865 58.04 167.401 57.824 166.825 57.664C166.249 57.488 165.609 57.328 164.905 57.184C164.217 57.024 163.521 56.832 162.817 56.608C162.129 56.384 161.497 56.096 160.921 55.744C160.345 55.392 159.873 54.928 159.505 54.352C159.153 53.776 158.977 53.04 158.977 52.144C158.977 51.184 159.233 50.312 159.745 49.528C160.273 48.728 161.057 48.096 162.097 47.632C163.153 47.152 164.473 46.912 166.057 46.912C167.113 46.912 168.153 47.04 169.177 47.296C170.201 47.536 171.105 47.904 171.889 48.4L170.689 51.352C169.905 50.904 169.121 50.576 168.337 50.368C167.553 50.144 166.785 50.032 166.033 50.032C165.281 50.032 164.665 50.12 164.185 50.296C163.705 50.472 163.361 50.704 163.153 50.992C162.945 51.264 162.841 51.584 162.841 51.952C162.841 52.384 163.017 52.736 163.369 53.008C163.721 53.264 164.185 53.472 164.761 53.632C165.337 53.792 165.969 53.952 166.657 54.112C167.361 54.272 168.057 54.456 168.745 54.664C169.449 54.872 170.089 55.152 170.665 55.504C171.241 55.856 171.705 56.32 172.057 56.896C172.425 57.472 172.609 58.2 172.609 59.08C172.609 60.024 172.345 60.888 171.817 61.672C171.289 62.456 170.497 63.088 169.441 63.568C168.401 64.048 167.081 64.288 165.481 64.288Z" fill="white"/>
<path d="M34.4729 36.7336C32.1355 46.1087 22.6396 51.8137 13.2634 49.4764C3.8916 47.139 -1.81394 37.6431 0.523947 28.2686C2.8602 18.8924 12.3556 13.1863 21.729 15.5237C31.1047 17.861 36.8102 27.358 34.4729 36.7336Z" fill="white"/>
<path d="M25.6988 30.9091C26.0466 28.5805 24.2737 27.3288 21.8494 26.4937L22.6358 23.3393L20.7152 22.8608L19.9495 25.932C19.4453 25.8063 18.9269 25.6876 18.4117 25.57L19.1828 22.4785L17.2638 22L16.4769 25.1533C16.0591 25.0581 15.6489 24.9641 15.2508 24.8651L15.253 24.8552L12.605 24.1941L12.0942 26.2448C12.0942 26.2448 13.5188 26.5713 13.4888 26.5916C14.2664 26.7857 14.4075 27.3003 14.3834 27.7083L13.4877 31.3018C13.5413 31.3155 13.6107 31.3352 13.6873 31.3658L13.4849 31.3155L12.2288 36.3495C12.1336 36.5857 11.8924 36.9401 11.3488 36.8055C11.368 36.8334 9.9532 36.4572 9.9532 36.4572L9 38.6556L11.4992 39.2785C11.9641 39.395 12.4196 39.517 12.8675 39.6318L12.0729 42.8228L13.9908 43.3013L14.7783 40.1448C15.3016 40.287 15.8102 40.4182 16.3079 40.5418L15.5237 43.6836L17.4438 44.1621L18.2384 40.9777C21.5125 41.5973 23.9751 41.3473 25.0103 38.3866C25.8454 36.0022 24.9693 34.6268 23.2466 33.7294C24.5012 33.439 25.4462 32.6138 25.6983 30.9091H25.6988ZM21.3113 37.0609C20.7173 39.4453 16.7033 38.1569 15.4012 37.8331L16.4555 33.6063C17.7571 33.9312 21.9303 34.5743 21.3118 37.0609H21.3113ZM21.9046 30.8747C21.3632 33.0436 18.0218 31.9416 16.9373 31.6715L17.8933 27.8379C18.9777 28.108 22.469 28.6123 21.9046 30.8747V30.8747Z" fill="black"/>
</svg>
