<svg width="70" height="35" viewBox="0 0 70 35" fill="none" xmlns="http://www.w3.org/2000/svg">
<rect width="69.2987" height="35" rx="17.5" fill="#F9F9F9"/>
<path d="M30.5428 13.4375H28.0541C28.0087 13.1155 27.9159 12.8295 27.7757 12.5795C27.6356 12.3258 27.4557 12.1098 27.236 11.9318C27.0163 11.7538 26.7625 11.6174 26.4746 11.5227C26.1905 11.428 25.8818 11.3807 25.5485 11.3807C24.9462 11.3807 24.4216 11.5303 23.9746 11.8295C23.5276 12.125 23.181 12.5568 22.9348 13.125C22.6886 13.6894 22.5655 14.375 22.5655 15.1818C22.5655 16.0114 22.6886 16.7083 22.9348 17.2727C23.1848 17.8371 23.5333 18.2633 23.9803 18.5511C24.4273 18.839 24.9443 18.983 25.5314 18.983C25.861 18.983 26.1659 18.9394 26.4462 18.8523C26.7303 18.7652 26.9822 18.6383 27.2019 18.4716C27.4216 18.3011 27.6034 18.0947 27.7473 17.8523C27.8951 17.6098 27.9973 17.3333 28.0541 17.0227L30.5428 17.0341C30.4784 17.5682 30.3174 18.0833 30.0598 18.5795C29.806 19.072 29.4632 19.5133 29.0314 19.9034C28.6034 20.2898 28.092 20.5966 27.4973 20.8239C26.9064 21.0473 26.2379 21.1591 25.4916 21.1591C24.4538 21.1591 23.5257 20.9242 22.7076 20.4545C21.8932 19.9848 21.2492 19.3049 20.7757 18.4148C20.306 17.5246 20.0712 16.447 20.0712 15.1818C20.0712 13.9129 20.3098 12.8333 20.7871 11.9432C21.2644 11.053 21.9121 10.375 22.7303 9.90909C23.5485 9.43939 24.4689 9.20455 25.4916 9.20455C26.1659 9.20455 26.7909 9.29924 27.3666 9.48864C27.9462 9.67803 28.4594 9.95455 28.9064 10.3182C29.3534 10.678 29.717 11.1193 29.9973 11.642C30.2814 12.1648 30.4632 12.7633 30.5428 13.4375ZM24.8837 20.9659H25.9973L25.9064 21.4602C26.2966 21.5208 26.6148 21.6667 26.861 21.8977C27.111 22.1288 27.2379 22.4432 27.2416 22.8409C27.2454 23.4053 26.9841 23.8542 26.4576 24.1875C25.931 24.5246 25.1924 24.6932 24.2416 24.6932L24.2189 23.6136C24.6962 23.6136 25.0693 23.5549 25.3382 23.4375C25.611 23.3239 25.753 23.1458 25.7644 22.9034C25.7719 22.6723 25.6829 22.4962 25.4973 22.375C25.3117 22.2538 25.0219 22.1686 24.628 22.1193L24.8837 20.9659ZM36.2388 21.1705C35.3411 21.1705 34.5683 20.9886 33.9206 20.625C33.2767 20.2576 32.7805 19.7386 32.432 19.0682C32.0835 18.3939 31.9093 17.5966 31.9093 16.6761C31.9093 15.7784 32.0835 14.9905 32.432 14.3125C32.7805 13.6345 33.271 13.1061 33.9036 12.7273C34.5399 12.3485 35.2862 12.1591 36.1422 12.1591C36.718 12.1591 37.254 12.2519 37.7502 12.4375C38.2502 12.6193 38.6858 12.8939 39.057 13.2614C39.432 13.6288 39.7237 14.0909 39.932 14.6477C40.1403 15.2008 40.2445 15.8485 40.2445 16.5909V17.2557H32.8752V15.7557H37.9661C37.9661 15.4072 37.8903 15.0985 37.7388 14.8295C37.5873 14.5606 37.3771 14.3504 37.1081 14.1989C36.843 14.0436 36.5343 13.9659 36.182 13.9659C35.8146 13.9659 35.4888 14.0511 35.2047 14.2216C34.9244 14.3883 34.7047 14.6136 34.5456 14.8977C34.3865 15.178 34.3051 15.4905 34.3013 15.8352V17.2614C34.3013 17.6932 34.3808 18.0663 34.5399 18.3807C34.7028 18.6951 34.932 18.9375 35.2274 19.108C35.5229 19.2784 35.8733 19.3636 36.2786 19.3636C36.5475 19.3636 36.7937 19.3258 37.0172 19.25C37.2407 19.1742 37.432 19.0606 37.5911 18.9091C37.7502 18.7576 37.8714 18.572 37.9547 18.3523L40.1933 18.5C40.0797 19.0379 39.8468 19.5076 39.4945 19.9091C39.146 20.3068 38.6952 20.6174 38.1422 20.8409C37.593 21.0606 36.9585 21.1705 36.2388 21.1705ZM44.0172 18.4886L44.0229 15.5852H44.3752L47.1706 12.2727H49.949L46.1934 16.6591H45.6195L44.0172 18.4886ZM41.824 21V9.36364H44.2445V21H41.824ZM47.2786 21L44.7104 17.1989L46.324 15.4886L50.1138 21H47.2786Z" fill="black"/>
</svg>
