<svg width="180" height="47" viewBox="0 0 180 47" fill="none" xmlns="http://www.w3.org/2000/svg">
<rect width="178" height="47" rx="23.5" fill="#F9F9F9"/>
<path d="M91.4135 21.4375H88.9249C88.8794 21.1155 88.7866 20.8295 88.6464 20.5795C88.5063 20.3258 88.3264 20.1098 88.1067 19.9318C87.887 19.7538 87.6332 19.6174 87.3453 19.5227C87.0612 19.428 86.7525 19.3807 86.4192 19.3807C85.8169 19.3807 85.2923 19.5303 84.8453 19.8295C84.3983 20.125 84.0517 20.5568 83.8055 21.125C83.5593 21.6894 83.4362 22.375 83.4362 23.1818C83.4362 24.0114 83.5593 24.7083 83.8055 25.2727C84.0555 25.8371 84.404 26.2633 84.851 26.5511C85.298 26.839 85.815 26.983 86.4021 26.983C86.7317 26.983 87.0366 26.9394 87.3169 26.8523C87.601 26.7652 87.8529 26.6383 88.0726 26.4716C88.2923 26.3011 88.4741 26.0947 88.618 25.8523C88.7658 25.6098 88.868 25.3333 88.9249 25.0227L91.4135 25.0341C91.3491 25.5682 91.1881 26.0833 90.9305 26.5795C90.6767 27.072 90.3339 27.5133 89.9021 27.9034C89.4741 28.2898 88.9627 28.5966 88.368 28.8239C87.7771 29.0473 87.1086 29.1591 86.3624 29.1591C85.3245 29.1591 84.3964 28.9242 83.5783 28.4545C82.7639 27.9848 82.1199 27.3049 81.6464 26.4148C81.1767 25.5246 80.9419 24.447 80.9419 23.1818C80.9419 21.9129 81.1805 20.8333 81.6578 19.9432C82.1351 19.053 82.7828 18.375 83.601 17.9091C84.4192 17.4394 85.3396 17.2045 86.3624 17.2045C87.0366 17.2045 87.6616 17.2992 88.2374 17.4886C88.8169 17.678 89.3302 17.9545 89.7771 18.3182C90.2241 18.678 90.5877 19.1193 90.868 19.642C91.1521 20.1648 91.3339 20.7633 91.4135 21.4375ZM85.7544 28.9659H86.868L86.7771 29.4602C87.1673 29.5208 87.4855 29.6667 87.7317 29.8977C87.9817 30.1288 88.1086 30.4432 88.1124 30.8409C88.1161 31.4053 87.8548 31.8542 87.3283 32.1875C86.8017 32.5246 86.0631 32.6932 85.1124 32.6932L85.0896 31.6136C85.5669 31.6136 85.94 31.5549 86.2089 31.4375C86.4817 31.3239 86.6237 31.1458 86.6351 30.9034C86.6427 30.6723 86.5536 30.4962 86.368 30.375C86.1824 30.2538 85.8927 30.1686 85.4987 30.1193L85.7544 28.9659ZM93.1322 29V20.2727H95.5527V29H93.1322ZM99.6848 26.4886L99.6905 23.5852H100.043L102.838 20.2727H105.617L101.861 24.6591H101.287L99.6848 26.4886ZM97.4916 29V17.3636H99.9121V29H97.4916ZM102.946 29L100.378 25.1989L101.992 23.4886L105.781 29H102.946ZM109.293 29.1648C108.736 29.1648 108.24 29.0682 107.804 28.875C107.369 28.678 107.024 28.3883 106.77 28.0057C106.52 27.6193 106.395 27.1383 106.395 26.5625C106.395 26.0777 106.484 25.6705 106.662 25.3409C106.84 25.0114 107.083 24.7462 107.389 24.5455C107.696 24.3447 108.045 24.1932 108.435 24.0909C108.829 23.9886 109.242 23.9167 109.673 23.875C110.181 23.822 110.59 23.7727 110.901 23.7273C111.211 23.678 111.437 23.6061 111.577 23.5114C111.717 23.4167 111.787 23.2765 111.787 23.0909V23.0568C111.787 22.697 111.673 22.4186 111.446 22.2216C111.223 22.0246 110.904 21.9261 110.492 21.9261C110.056 21.9261 109.709 22.0227 109.452 22.2159C109.194 22.4053 109.024 22.6439 108.94 22.9318L106.702 22.75C106.815 22.2197 107.039 21.7614 107.372 21.375C107.706 20.9848 108.136 20.6856 108.662 20.4773C109.192 20.2652 109.806 20.1591 110.503 20.1591C110.988 20.1591 111.452 20.2159 111.895 20.3295C112.342 20.4432 112.738 20.6193 113.083 20.858C113.431 21.0966 113.706 21.4034 113.906 21.7784C114.107 22.1496 114.208 22.5947 114.208 23.1136V29H111.912V27.7898H111.844C111.704 28.0625 111.516 28.303 111.281 28.5114C111.047 28.7159 110.764 28.8769 110.435 28.9943C110.105 29.108 109.725 29.1648 109.293 29.1648ZM109.986 27.4943C110.342 27.4943 110.656 27.4242 110.929 27.2841C111.202 27.1402 111.416 26.947 111.571 26.7045C111.726 26.4621 111.804 26.1875 111.804 25.8807V24.9545C111.728 25.0038 111.624 25.0492 111.492 25.0909C111.363 25.1288 111.217 25.1648 111.054 25.1989C110.891 25.2292 110.728 25.2576 110.565 25.2841C110.403 25.3068 110.255 25.3277 110.122 25.3466C109.838 25.3883 109.59 25.4545 109.378 25.5455C109.166 25.6364 109.001 25.7595 108.884 25.9148C108.766 26.0663 108.708 26.2557 108.708 26.483C108.708 26.8125 108.827 27.0644 109.065 27.2386C109.308 27.4091 109.615 27.4943 109.986 27.4943ZM116.085 29V20.2727H118.432V21.7955H118.523C118.682 21.2538 118.949 20.8447 119.324 20.5682C119.699 20.2879 120.131 20.1477 120.619 20.1477C120.741 20.1477 120.871 20.1553 121.011 20.1705C121.152 20.1856 121.275 20.2064 121.381 20.233V22.3807C121.267 22.3466 121.11 22.3163 120.909 22.2898C120.708 22.2633 120.525 22.25 120.358 22.25C120.002 22.25 119.684 22.3277 119.404 22.483C119.127 22.6345 118.907 22.8466 118.744 23.1193C118.585 23.392 118.506 23.7064 118.506 24.0625V29H116.085Z" fill="black"/>
<path d="M46.375 20.125H38.875C38.5312 20.125 38.25 20.4062 38.25 20.75V22C38.25 22.3438 38.5312 22.625 38.875 22.625H46.375C46.7188 22.625 47 22.3438 47 22V20.75C47 20.4062 46.7188 20.125 46.375 20.125ZM30.75 22C33.5117 22 35.75 19.7617 35.75 17C35.75 14.2383 33.5117 12 30.75 12C27.9883 12 25.75 14.2383 25.75 17C25.75 19.7617 27.9883 22 30.75 22ZM34.25 23.25H33.5977C32.7305 23.6484 31.7656 23.875 30.75 23.875C29.7344 23.875 28.7734 23.6484 27.9023 23.25H27.25C24.3516 23.25 22 25.6016 22 28.5V30.125C22 31.1602 22.8398 32 23.875 32H37.625C38.6602 32 39.5 31.1602 39.5 30.125V28.5C39.5 25.6016 37.1484 23.25 34.25 23.25Z" fill="black"/>
</svg>
