<svg width="171" height="70" viewBox="0 0 171 70" fill="none" xmlns="http://www.w3.org/2000/svg">
<path d="M50.992 6.2H58.624C60.448 6.2 62.056 6.552 63.448 7.256C64.856 7.944 65.944 8.92 66.712 10.184C67.496 11.448 67.888 12.92 67.888 14.6C67.888 16.28 67.496 17.752 66.712 19.016C65.944 20.28 64.856 21.264 63.448 21.968C62.056 22.656 60.448 23 58.624 23H50.992V6.2ZM58.432 19.808C60.112 19.808 61.448 19.344 62.44 18.416C63.448 17.472 63.952 16.2 63.952 14.6C63.952 13 63.448 11.736 62.44 10.808C61.448 9.864 60.112 9.392 58.432 9.392H54.88V19.808H58.432ZM78.9561 23.288C77.2121 23.288 75.6361 22.912 74.2281 22.16C72.8361 21.408 71.7401 20.376 70.9401 19.064C70.1561 17.736 69.7641 16.248 69.7641 14.6C69.7641 12.952 70.1561 11.472 70.9401 10.16C71.7401 8.832 72.8361 7.792 74.2281 7.04C75.6361 6.288 77.2121 5.912 78.9561 5.912C80.7001 5.912 82.2681 6.288 83.6601 7.04C85.0521 7.792 86.1481 8.832 86.9481 10.16C87.7481 11.472 88.1481 12.952 88.1481 14.6C88.1481 16.248 87.7481 17.736 86.9481 19.064C86.1481 20.376 85.0521 21.408 83.6601 22.16C82.2681 22.912 80.7001 23.288 78.9561 23.288ZM78.9561 19.976C79.9481 19.976 80.8441 19.752 81.6441 19.304C82.4441 18.84 83.0681 18.2 83.5161 17.384C83.9801 16.568 84.2121 15.64 84.2121 14.6C84.2121 13.56 83.9801 12.632 83.5161 11.816C83.0681 11 82.4441 10.368 81.6441 9.92C80.8441 9.456 79.9481 9.224 78.9561 9.224C77.9641 9.224 77.0681 9.456 76.2681 9.92C75.4681 10.368 74.8361 11 74.3721 11.816C73.9241 12.632 73.7001 13.56 73.7001 14.6C73.7001 15.64 73.9241 16.568 74.3721 17.384C74.8361 18.2 75.4681 18.84 76.2681 19.304C77.0681 19.752 77.9641 19.976 78.9561 19.976ZM102.422 14.336H105.974V21.152C105.062 21.84 104.006 22.368 102.806 22.736C101.606 23.104 100.398 23.288 99.1821 23.288C97.4381 23.288 95.8701 22.92 94.4781 22.184C93.0861 21.432 91.9901 20.4 91.1901 19.088C90.4061 17.76 90.0141 16.264 90.0141 14.6C90.0141 12.936 90.4061 11.448 91.1901 10.136C91.9901 8.808 93.0941 7.776 94.5021 7.04C95.9101 6.288 97.4941 5.912 99.2541 5.912C100.726 5.912 102.062 6.16 103.262 6.656C104.462 7.152 105.47 7.872 106.286 8.816L103.79 11.12C102.59 9.856 101.142 9.224 99.4461 9.224C98.3741 9.224 97.4221 9.448 96.5901 9.896C95.7581 10.344 95.1101 10.976 94.6461 11.792C94.1821 12.608 93.9501 13.544 93.9501 14.6C93.9501 15.64 94.1821 16.568 94.6461 17.384C95.1101 18.2 95.7501 18.84 96.5661 19.304C97.3981 19.752 98.3421 19.976 99.3981 19.976C100.518 19.976 101.526 19.736 102.422 19.256V14.336ZM122.594 19.88V23H109.586V6.2H122.282V9.32H113.45V12.968H121.25V15.992H113.45V19.88H122.594Z" fill="white"/>
<path d="M57.136 64.288C55.76 64.288 54.528 63.952 53.44 63.28C52.352 62.592 51.496 61.6 50.872 60.304C50.248 59.008 49.936 57.44 49.936 55.6C49.936 53.76 50.248 52.192 50.872 50.896C51.496 49.6 52.352 48.616 53.44 47.944C54.528 47.256 55.76 46.912 57.136 46.912C58.528 46.912 59.76 47.256 60.832 47.944C61.92 48.616 62.776 49.6 63.4 50.896C64.024 52.192 64.336 53.76 64.336 55.6C64.336 57.44 64.024 59.008 63.4 60.304C62.776 61.6 61.92 62.592 60.832 63.28C59.76 63.952 58.528 64.288 57.136 64.288ZM57.136 61C57.792 61 58.36 60.816 58.84 60.448C59.336 60.08 59.72 59.496 59.992 58.696C60.28 57.896 60.424 56.864 60.424 55.6C60.424 54.336 60.28 53.304 59.992 52.504C59.72 51.704 59.336 51.12 58.84 50.752C58.36 50.384 57.792 50.2 57.136 50.2C56.496 50.2 55.928 50.384 55.432 50.752C54.952 51.12 54.568 51.704 54.28 52.504C54.008 53.304 53.872 54.336 53.872 55.6C53.872 56.864 54.008 57.896 54.28 58.696C54.568 59.496 54.952 60.08 55.432 60.448C55.928 60.816 56.496 61 57.136 61ZM66.0644 67.696L67.6484 61.936L68.1764 64.096C67.4884 64.096 66.9204 63.896 66.4724 63.496C66.0404 63.096 65.8244 62.544 65.8244 61.84C65.8244 61.136 66.0484 60.576 66.4964 60.16C66.9444 59.744 67.4964 59.536 68.1524 59.536C68.8244 59.536 69.3764 59.752 69.8084 60.184C70.2404 60.6 70.4564 61.152 70.4564 61.84C70.4564 62.048 70.4404 62.256 70.4084 62.464C70.3764 62.656 70.3124 62.896 70.2164 63.184C70.1364 63.456 70.0004 63.808 69.8084 64.24L68.4404 67.696H66.0644ZM79.0969 64.288C77.7209 64.288 76.4889 63.952 75.4009 63.28C74.3129 62.592 73.4569 61.6 72.8329 60.304C72.2089 59.008 71.8969 57.44 71.8969 55.6C71.8969 53.76 72.2089 52.192 72.8329 50.896C73.4569 49.6 74.3129 48.616 75.4009 47.944C76.4889 47.256 77.7209 46.912 79.0969 46.912C80.4889 46.912 81.7209 47.256 82.7929 47.944C83.8809 48.616 84.7369 49.6 85.3609 50.896C85.9849 52.192 86.2969 53.76 86.2969 55.6C86.2969 57.44 85.9849 59.008 85.3609 60.304C84.7369 61.6 83.8809 62.592 82.7929 63.28C81.7209 63.952 80.4889 64.288 79.0969 64.288ZM79.0969 61C79.7529 61 80.3209 60.816 80.8009 60.448C81.2969 60.08 81.6809 59.496 81.9529 58.696C82.2409 57.896 82.3849 56.864 82.3849 55.6C82.3849 54.336 82.2409 53.304 81.9529 52.504C81.6809 51.704 81.2969 51.12 80.8009 50.752C80.3209 50.384 79.7529 50.2 79.0969 50.2C78.4569 50.2 77.8889 50.384 77.3929 50.752C76.9129 51.12 76.5289 51.704 76.2409 52.504C75.9689 53.304 75.8329 54.336 75.8329 55.6C75.8329 56.864 75.9689 57.896 76.2409 58.696C76.5289 59.496 76.9129 60.08 77.3929 60.448C77.8889 60.816 78.4569 61 79.0969 61ZM95.698 64.288C94.162 64.288 92.826 63.968 91.69 63.328C90.57 62.688 89.706 61.752 89.098 60.52C88.49 59.288 88.186 57.768 88.186 55.96C88.186 54.024 88.546 52.384 89.266 51.04C90.002 49.696 91.01 48.672 92.29 47.968C93.586 47.264 95.074 46.912 96.754 46.912C97.65 46.912 98.506 47.008 99.322 47.2C100.138 47.392 100.842 47.68 101.434 48.064L99.994 50.92C99.53 50.6 99.034 50.384 98.506 50.272C97.978 50.144 97.426 50.08 96.85 50.08C95.394 50.08 94.242 50.52 93.394 51.4C92.546 52.28 92.122 53.584 92.122 55.312C92.122 55.6 92.122 55.92 92.122 56.272C92.138 56.624 92.186 56.976 92.266 57.328L91.186 56.32C91.49 55.696 91.882 55.176 92.362 54.76C92.842 54.328 93.41 54.008 94.066 53.8C94.738 53.576 95.474 53.464 96.274 53.464C97.362 53.464 98.338 53.68 99.202 54.112C100.066 54.544 100.754 55.152 101.266 55.936C101.794 56.72 102.058 57.64 102.058 58.696C102.058 59.832 101.77 60.824 101.194 61.672C100.634 62.504 99.874 63.152 98.914 63.616C97.97 64.064 96.898 64.288 95.698 64.288ZM95.482 61.384C96.026 61.384 96.506 61.288 96.922 61.096C97.354 60.888 97.69 60.592 97.93 60.208C98.17 59.824 98.29 59.384 98.29 58.888C98.29 58.12 98.026 57.512 97.498 57.064C96.986 56.6 96.298 56.368 95.434 56.368C94.858 56.368 94.354 56.48 93.922 56.704C93.49 56.912 93.146 57.208 92.89 57.592C92.65 57.96 92.53 58.392 92.53 58.888C92.53 59.368 92.65 59.8 92.89 60.184C93.13 60.552 93.466 60.848 93.898 61.072C94.33 61.28 94.858 61.384 95.482 61.384ZM110.427 64.288C109.019 64.288 107.787 64.08 106.731 63.664C105.675 63.232 104.851 62.632 104.259 61.864C103.667 61.08 103.371 60.168 103.371 59.128C103.371 58.088 103.659 57.208 104.235 56.488C104.827 55.752 105.651 55.2 106.707 54.832C107.763 54.448 109.003 54.256 110.427 54.256C111.867 54.256 113.115 54.448 114.171 54.832C115.243 55.2 116.067 55.752 116.643 56.488C117.235 57.208 117.531 58.088 117.531 59.128C117.531 60.168 117.235 61.08 116.643 61.864C116.051 62.632 115.219 63.232 114.147 63.664C113.091 64.08 111.851 64.288 110.427 64.288ZM110.427 61.432C111.403 61.432 112.171 61.216 112.731 60.784C113.307 60.352 113.595 59.76 113.595 59.008C113.595 58.256 113.307 57.672 112.731 57.256C112.171 56.824 111.403 56.608 110.427 56.608C109.467 56.608 108.707 56.824 108.147 57.256C107.587 57.672 107.307 58.256 107.307 59.008C107.307 59.76 107.587 60.352 108.147 60.784C108.707 61.216 109.467 61.432 110.427 61.432ZM110.427 56.224C109.131 56.224 107.995 56.048 107.019 55.696C106.059 55.344 105.307 54.832 104.763 54.16C104.235 53.472 103.971 52.656 103.971 51.712C103.971 50.72 104.243 49.872 104.787 49.168C105.331 48.448 106.091 47.896 107.067 47.512C108.043 47.112 109.163 46.912 110.427 46.912C111.723 46.912 112.851 47.112 113.811 47.512C114.787 47.896 115.547 48.448 116.091 49.168C116.651 49.872 116.931 50.72 116.931 51.712C116.931 52.656 116.659 53.472 116.115 54.16C115.587 54.832 114.835 55.344 113.859 55.696C112.883 56.048 111.739 56.224 110.427 56.224ZM110.427 53.944C111.243 53.944 111.883 53.76 112.347 53.392C112.827 53.024 113.067 52.52 113.067 51.88C113.067 51.208 112.819 50.688 112.323 50.32C111.843 49.952 111.211 49.768 110.427 49.768C109.659 49.768 109.035 49.952 108.555 50.32C108.075 50.688 107.835 51.208 107.835 51.88C107.835 52.52 108.067 53.024 108.531 53.392C108.995 53.76 109.627 53.944 110.427 53.944ZM126.823 64.288C125.287 64.288 123.951 63.968 122.815 63.328C121.695 62.688 120.831 61.752 120.223 60.52C119.615 59.288 119.311 57.768 119.311 55.96C119.311 54.024 119.671 52.384 120.391 51.04C121.127 49.696 122.135 48.672 123.415 47.968C124.711 47.264 126.199 46.912 127.879 46.912C128.775 46.912 129.631 47.008 130.447 47.2C131.263 47.392 131.967 47.68 132.559 48.064L131.119 50.92C130.655 50.6 130.159 50.384 129.631 50.272C129.103 50.144 128.551 50.08 127.975 50.08C126.519 50.08 125.367 50.52 124.519 51.4C123.671 52.28 123.247 53.584 123.247 55.312C123.247 55.6 123.247 55.92 123.247 56.272C123.263 56.624 123.311 56.976 123.391 57.328L122.311 56.32C122.615 55.696 123.007 55.176 123.487 54.76C123.967 54.328 124.535 54.008 125.191 53.8C125.863 53.576 126.599 53.464 127.399 53.464C128.487 53.464 129.463 53.68 130.327 54.112C131.191 54.544 131.879 55.152 132.391 55.936C132.919 56.72 133.183 57.64 133.183 58.696C133.183 59.832 132.895 60.824 132.319 61.672C131.759 62.504 130.999 63.152 130.039 63.616C129.095 64.064 128.023 64.288 126.823 64.288ZM126.607 61.384C127.151 61.384 127.631 61.288 128.047 61.096C128.479 60.888 128.815 60.592 129.055 60.208C129.295 59.824 129.415 59.384 129.415 58.888C129.415 58.12 129.151 57.512 128.623 57.064C128.111 56.6 127.423 56.368 126.559 56.368C125.983 56.368 125.479 56.48 125.047 56.704C124.615 56.912 124.271 57.208 124.015 57.592C123.775 57.96 123.655 58.392 123.655 58.888C123.655 59.368 123.775 59.8 124.015 60.184C124.255 60.552 124.591 60.848 125.023 61.072C125.455 61.28 125.983 61.384 126.607 61.384ZM137.21 64L143.978 48.688L144.986 50.368H135.938L137.666 48.544V53.104H134.21V47.2H147.674V49.72L141.434 64H137.21ZM161.914 66.88V44.32H164.314V66.88H161.914ZM162.778 64.288C161.434 64.288 160.146 64.112 158.914 63.76C157.682 63.392 156.69 62.92 155.938 62.344L157.258 59.416C157.978 59.928 158.826 60.352 159.802 60.688C160.794 61.008 161.794 61.168 162.802 61.168C163.57 61.168 164.186 61.096 164.65 60.952C165.13 60.792 165.482 60.576 165.706 60.304C165.93 60.032 166.042 59.72 166.042 59.368C166.042 58.92 165.866 58.568 165.514 58.312C165.162 58.04 164.698 57.824 164.122 57.664C163.546 57.488 162.906 57.328 162.202 57.184C161.514 57.024 160.818 56.832 160.114 56.608C159.426 56.384 158.794 56.096 158.218 55.744C157.642 55.392 157.17 54.928 156.802 54.352C156.45 53.776 156.274 53.04 156.274 52.144C156.274 51.184 156.53 50.312 157.042 49.528C157.57 48.728 158.354 48.096 159.394 47.632C160.45 47.152 161.77 46.912 163.354 46.912C164.41 46.912 165.45 47.04 166.474 47.296C167.498 47.536 168.402 47.904 169.186 48.4L167.986 51.352C167.202 50.904 166.418 50.576 165.634 50.368C164.85 50.144 164.082 50.032 163.33 50.032C162.578 50.032 161.962 50.12 161.482 50.296C161.002 50.472 160.658 50.704 160.45 50.992C160.242 51.264 160.138 51.584 160.138 51.952C160.138 52.384 160.314 52.736 160.666 53.008C161.018 53.264 161.482 53.472 162.058 53.632C162.634 53.792 163.266 53.952 163.954 54.112C164.658 54.272 165.354 54.456 166.042 54.664C166.746 54.872 167.386 55.152 167.962 55.504C168.538 55.856 169.002 56.32 169.354 56.896C169.722 57.472 169.906 58.2 169.906 59.08C169.906 60.024 169.642 60.888 169.114 61.672C168.586 62.456 167.794 63.088 166.738 63.568C165.698 64.048 164.378 64.288 162.778 64.288Z" fill="white"/>
<path d="M17.92 26.5325H15.4196V31.4621H19.3534V33.526H15.4196V38.4553H18.0425C18.7164 38.4553 23.5753 38.5314 23.5677 32.7202C23.5602 26.9089 18.8552 26.5325 17.92 26.5325Z" fill="white"/>
<path d="M17.5 15C7.83493 15 0 22.8349 0 32.5C0 42.1651 7.83493 50 17.5 50C27.1651 50 35 42.1651 35 32.5C35 22.8349 27.1651 15 17.5 15ZM18.1876 41.9517H11.85V33.5262H9.6159V31.4623H11.8498V23.0362H17.2891C18.5759 23.0362 27.0989 22.769 27.0989 32.6521C27.0989 42.6987 18.1878 41.9517 18.1878 41.9517H18.1876Z" fill="white"/>
</svg>
