<svg width="180" height="47" viewBox="0 0 180 47" fill="none" xmlns="http://www.w3.org/2000/svg">
<rect width="178" height="47" rx="23.5" fill="#F9F9F9"/>
<path d="M85.3964 29V17.3636H93.2374V19.392H87.8567V22.1648H92.8339V24.1932H87.8567V26.9716H93.2601V29H85.3964ZM97.341 26.4886L97.3467 23.5852H97.699L100.494 20.2727H103.273L99.5172 24.6591H98.9433L97.341 26.4886ZM95.1479 29V17.3636H97.5683V29H95.1479ZM100.602 29L98.0342 25.1989L99.6479 23.4886L103.438 29H100.602ZM106.881 17.3636V29H104.46V17.3636H106.881ZM112.797 29.1705C111.899 29.1705 111.127 28.9886 110.479 28.625C109.835 28.2576 109.339 27.7386 108.99 27.0682C108.642 26.3939 108.467 25.5966 108.467 24.6761C108.467 23.7784 108.642 22.9905 108.99 22.3125C109.339 21.6345 109.829 21.1061 110.462 20.7273C111.098 20.3485 111.844 20.1591 112.7 20.1591C113.276 20.1591 113.812 20.2519 114.308 20.4375C114.808 20.6193 115.244 20.8939 115.615 21.2614C115.99 21.6288 116.282 22.0909 116.49 22.6477C116.699 23.2008 116.803 23.8485 116.803 24.5909V25.2557H109.433V23.7557H114.524C114.524 23.4072 114.449 23.0985 114.297 22.8295C114.145 22.5606 113.935 22.3504 113.666 22.1989C113.401 22.0436 113.092 21.9659 112.74 21.9659C112.373 21.9659 112.047 22.0511 111.763 22.2216C111.483 22.3883 111.263 22.6136 111.104 22.8977C110.945 23.178 110.863 23.4905 110.86 23.8352V25.2614C110.86 25.6932 110.939 26.0663 111.098 26.3807C111.261 26.6951 111.49 26.9375 111.786 27.108C112.081 27.2784 112.431 27.3636 112.837 27.3636C113.106 27.3636 113.352 27.3258 113.575 27.25C113.799 27.1742 113.99 27.0606 114.149 26.9091C114.308 26.7576 114.43 26.572 114.513 26.3523L116.752 26.5C116.638 27.0379 116.405 27.5076 116.053 27.9091C115.704 28.3068 115.253 28.6174 114.7 28.8409C114.151 29.0606 113.517 29.1705 112.797 29.1705Z" fill="black"/>
<path d="M61.375 21.125H58.875V18.625C58.875 18.2812 58.5938 18 58.25 18H57C56.6562 18 56.375 18.2812 56.375 18.625V21.125H53.875C53.5312 21.125 53.25 21.4062 53.25 21.75V23C53.25 23.3438 53.5312 23.625 53.875 23.625H56.375V26.125C56.375 26.4688 56.6562 26.75 57 26.75H58.25C58.5938 26.75 58.875 26.4688 58.875 26.125V23.625H61.375C61.7188 23.625 62 23.3438 62 23V21.75C62 21.4062 61.7188 21.125 61.375 21.125ZM45.75 23C48.5117 23 50.75 20.7617 50.75 18C50.75 15.2383 48.5117 13 45.75 13C42.9883 13 40.75 15.2383 40.75 18C40.75 20.7617 42.9883 23 45.75 23ZM49.25 24.25H48.5977C47.7305 24.6484 46.7656 24.875 45.75 24.875C44.7344 24.875 43.7734 24.6484 42.9023 24.25H42.25C39.3516 24.25 37 26.6016 37 29.5V31.125C37 32.1602 37.8398 33 38.875 33H52.625C53.6602 33 54.5 32.1602 54.5 31.125V29.5C54.5 26.6016 52.1484 24.25 49.25 24.25Z" fill="black"/>
</svg>
