<svg width="170" height="70" viewBox="0 0 170 70" fill="none" xmlns="http://www.w3.org/2000/svg">
<path d="M63 19.88V23H49.992V6.2H62.688V9.32H53.856V12.968H61.656V15.992H53.856V19.88H63ZM69.5736 9.368H64.1976V6.2H78.8376V9.368H73.4616V23H69.5736V9.368ZM96.3375 6.2V23H92.4495V16.112H84.8175V23H80.9295V6.2H84.8175V12.824H92.4495V6.2H96.3375Z" fill="white"/>
<path d="M51.528 64V48.64L53.208 50.32H48.168V47.2H55.416V64H51.528ZM60.5424 64.192C59.9024 64.192 59.3504 63.976 58.8864 63.544C58.4384 63.096 58.2144 62.528 58.2144 61.84C58.2144 61.152 58.4384 60.6 58.8864 60.184C59.3504 59.752 59.9024 59.536 60.5424 59.536C61.1984 59.536 61.7504 59.752 62.1984 60.184C62.6464 60.6 62.8704 61.152 62.8704 61.84C62.8704 62.528 62.6464 63.096 62.1984 63.544C61.7504 63.976 61.1984 64.192 60.5424 64.192ZM66.9053 64L73.6733 48.688L74.6813 50.368H65.6333L67.3613 48.544V53.104H63.9053V47.2H77.3693V49.72L71.1293 64H66.9053ZM85.8313 64.288C84.4553 64.288 83.2233 63.952 82.1353 63.28C81.0473 62.592 80.1913 61.6 79.5673 60.304C78.9433 59.008 78.6313 57.44 78.6313 55.6C78.6313 53.76 78.9433 52.192 79.5673 50.896C80.1913 49.6 81.0473 48.616 82.1353 47.944C83.2233 47.256 84.4553 46.912 85.8313 46.912C87.2233 46.912 88.4553 47.256 89.5273 47.944C90.6153 48.616 91.4713 49.6 92.0953 50.896C92.7193 52.192 93.0313 53.76 93.0313 55.6C93.0313 57.44 92.7193 59.008 92.0953 60.304C91.4713 61.6 90.6153 62.592 89.5273 63.28C88.4553 63.952 87.2233 64.288 85.8313 64.288ZM85.8313 61C86.4873 61 87.0553 60.816 87.5353 60.448C88.0313 60.08 88.4153 59.496 88.6873 58.696C88.9753 57.896 89.1193 56.864 89.1193 55.6C89.1193 54.336 88.9753 53.304 88.6873 52.504C88.4153 51.704 88.0313 51.12 87.5353 50.752C87.0553 50.384 86.4873 50.2 85.8313 50.2C85.1913 50.2 84.6233 50.384 84.1273 50.752C83.6473 51.12 83.2633 51.704 82.9753 52.504C82.7033 53.304 82.5673 54.336 82.5673 55.6C82.5673 56.864 82.7033 57.896 82.9753 58.696C83.2633 59.496 83.6473 60.08 84.1273 60.448C84.6233 60.816 85.1913 61 85.8313 61ZM100.134 64.288C98.966 64.288 97.806 64.136 96.654 63.832C95.502 63.512 94.526 63.064 93.726 62.488L95.238 59.512C95.878 59.976 96.622 60.344 97.47 60.616C98.318 60.888 99.174 61.024 100.038 61.024C101.014 61.024 101.782 60.832 102.342 60.448C102.902 60.064 103.182 59.536 103.182 58.864C103.182 58.224 102.934 57.72 102.438 57.352C101.942 56.984 101.142 56.8 100.038 56.8H98.262V54.232L102.942 48.928L103.374 50.32H94.566V47.2H106.326V49.72L101.67 55.024L99.702 53.896H100.83C102.894 53.896 104.454 54.36 105.51 55.288C106.566 56.216 107.094 57.408 107.094 58.864C107.094 59.808 106.846 60.696 106.35 61.528C105.854 62.344 105.094 63.008 104.07 63.52C103.046 64.032 101.734 64.288 100.134 64.288ZM109.033 67.696L110.617 61.936L111.145 64.096C110.457 64.096 109.889 63.896 109.441 63.496C109.009 63.096 108.793 62.544 108.793 61.84C108.793 61.136 109.017 60.576 109.465 60.16C109.913 59.744 110.465 59.536 111.121 59.536C111.793 59.536 112.345 59.752 112.777 60.184C113.209 60.6 113.425 61.152 113.425 61.84C113.425 62.048 113.409 62.256 113.377 62.464C113.345 62.656 113.281 62.896 113.185 63.184C113.105 63.456 112.969 63.808 112.777 64.24L111.409 67.696H109.033ZM115.261 64V61.48L121.741 55.36C122.253 54.896 122.629 54.48 122.869 54.112C123.109 53.744 123.269 53.408 123.349 53.104C123.445 52.8 123.493 52.52 123.493 52.264C123.493 51.592 123.261 51.08 122.797 50.728C122.349 50.36 121.685 50.176 120.805 50.176C120.101 50.176 119.445 50.312 118.837 50.584C118.245 50.856 117.741 51.28 117.325 51.856L114.493 50.032C115.133 49.072 116.029 48.312 117.181 47.752C118.333 47.192 119.661 46.912 121.165 46.912C122.413 46.912 123.501 47.12 124.429 47.536C125.373 47.936 126.101 48.504 126.613 49.24C127.141 49.976 127.405 50.856 127.405 51.88C127.405 52.424 127.333 52.968 127.189 53.512C127.061 54.04 126.789 54.6 126.373 55.192C125.973 55.784 125.381 56.448 124.597 57.184L119.221 62.248L118.477 60.832H127.957V64H115.261ZM129.111 60.472V57.856L137.031 47.2H141.111L133.359 57.856L131.463 57.304H144.687V60.472H129.111ZM138.159 64V60.472L138.279 57.304V54.16H141.951V64H138.159ZM158.359 66.88V44.32H160.759V66.88H158.359ZM159.223 64.288C157.879 64.288 156.591 64.112 155.359 63.76C154.127 63.392 153.135 62.92 152.383 62.344L153.703 59.416C154.423 59.928 155.271 60.352 156.247 60.688C157.239 61.008 158.239 61.168 159.247 61.168C160.015 61.168 160.631 61.096 161.095 60.952C161.575 60.792 161.927 60.576 162.151 60.304C162.375 60.032 162.487 59.72 162.487 59.368C162.487 58.92 162.311 58.568 161.959 58.312C161.607 58.04 161.143 57.824 160.567 57.664C159.991 57.488 159.351 57.328 158.647 57.184C157.959 57.024 157.263 56.832 156.559 56.608C155.871 56.384 155.239 56.096 154.663 55.744C154.087 55.392 153.615 54.928 153.247 54.352C152.895 53.776 152.719 53.04 152.719 52.144C152.719 51.184 152.975 50.312 153.487 49.528C154.015 48.728 154.799 48.096 155.839 47.632C156.895 47.152 158.215 46.912 159.799 46.912C160.855 46.912 161.895 47.04 162.919 47.296C163.943 47.536 164.847 47.904 165.631 48.4L164.431 51.352C163.647 50.904 162.863 50.576 162.079 50.368C161.295 50.144 160.527 50.032 159.775 50.032C159.023 50.032 158.407 50.12 157.927 50.296C157.447 50.472 157.103 50.704 156.895 50.992C156.687 51.264 156.583 51.584 156.583 51.952C156.583 52.384 156.759 52.736 157.111 53.008C157.463 53.264 157.927 53.472 158.503 53.632C159.079 53.792 159.711 53.952 160.399 54.112C161.103 54.272 161.799 54.456 162.487 54.664C163.191 54.872 163.831 55.152 164.407 55.504C164.983 55.856 165.447 56.32 165.799 56.896C166.167 57.472 166.351 58.2 166.351 59.08C166.351 60.024 166.087 60.888 165.559 61.672C165.031 62.456 164.239 63.088 163.183 63.568C162.143 64.048 160.823 64.288 159.223 64.288Z" fill="white"/>
<path d="M17.5 50C27.165 50 35 42.165 35 32.5C35 22.835 27.165 15 17.5 15C7.83502 15 0 22.835 0 32.5C0 42.165 7.83502 50 17.5 50Z" fill="white"/>
<path d="M18.0447 19.375V29.0766L26.2445 32.7406L18.0447 19.375Z" fill="black" fill-opacity="0.602"/>
<path d="M18.0447 19.375L9.84375 32.7406L18.0447 29.0766V19.375Z" fill="black"/>
<path d="M18.0447 39.0275V45.6195L26.25 34.2675L18.0447 39.0275Z" fill="black" fill-opacity="0.602"/>
<path d="M18.0447 45.6195V39.0264L9.84375 34.2675L18.0447 45.6195Z" fill="black"/>
<path d="M18.0447 37.5017L26.2445 32.7406L18.0447 29.0787V37.5017Z" fill="black" fill-opacity="0.2"/>
<path d="M9.84375 32.7406L18.0447 37.5017V29.0787L9.84375 32.7406Z" fill="black" fill-opacity="0.602"/>
</svg>
