<svg width="180" height="47" viewBox="0 0 180 47" fill="none" xmlns="http://www.w3.org/2000/svg">
<rect width="178" height="47" rx="23.5" fill="#F9F9F9"/>
<path d="M74.9717 21.125C74.8922 20.8485 74.7804 20.6042 74.6365 20.392C74.4926 20.1761 74.3164 19.9943 74.1081 19.8466C73.9035 19.6951 73.6687 19.5795 73.4035 19.5C73.1422 19.4205 72.8524 19.3807 72.5342 19.3807C71.9395 19.3807 71.4168 19.5284 70.966 19.8239C70.5191 20.1193 70.1706 20.5492 69.9206 21.1136C69.6706 21.6742 69.5456 22.3598 69.5456 23.1705C69.5456 23.9811 69.6687 24.6705 69.9149 25.2386C70.1611 25.8068 70.5096 26.2405 70.9604 26.5398C71.4111 26.8352 71.9433 26.983 72.557 26.983C73.1138 26.983 73.5892 26.8845 73.9831 26.6875C74.3808 26.4867 74.6838 26.2045 74.8922 25.8409C75.1043 25.4773 75.2104 25.0473 75.2104 24.5511L75.7104 24.625H72.7104V22.7727H77.5797V24.2386C77.5797 25.2614 77.3638 26.1402 76.932 26.875C76.5001 27.6061 75.9054 28.1705 75.1479 28.5682C74.3903 28.9621 73.5229 29.1591 72.5456 29.1591C71.4547 29.1591 70.4963 28.9186 69.6706 28.4375C68.8448 27.9527 68.2009 27.2652 67.7388 26.375C67.2804 25.4811 67.0513 24.4205 67.0513 23.1932C67.0513 22.25 67.1876 21.4091 67.4604 20.6705C67.7369 19.928 68.1232 19.2992 68.6195 18.7841C69.1157 18.2689 69.6933 17.8769 70.3524 17.608C71.0115 17.339 71.7255 17.2045 72.4945 17.2045C73.1535 17.2045 73.7672 17.3011 74.3354 17.4943C74.9035 17.6837 75.4073 17.9527 75.8467 18.3011C76.2899 18.6496 76.6517 19.0644 76.932 19.5455C77.2123 20.0227 77.3922 20.5492 77.4717 21.125H74.9717ZM84.9788 25.2841V20.2727H87.3993V29H85.0754V27.4148H84.9845C84.7875 27.9261 84.4599 28.3371 84.0016 28.6477C83.547 28.9583 82.9921 29.1136 82.3368 29.1136C81.7534 29.1136 81.2402 28.9811 80.797 28.7159C80.3538 28.4508 80.0072 28.0739 79.7572 27.5852C79.511 27.0966 79.386 26.5114 79.3822 25.8295V20.2727H81.8027V25.3977C81.8065 25.9129 81.9447 26.3201 82.2175 26.6193C82.4902 26.9186 82.8557 27.0682 83.3141 27.0682C83.6057 27.0682 83.8784 27.0019 84.1322 26.8693C84.386 26.733 84.5906 26.5322 84.7459 26.267C84.905 26.0019 84.9826 25.6742 84.9788 25.2841ZM81.672 19.0795C81.3463 19.0795 81.0659 18.9659 80.8311 18.7386C80.5963 18.5076 80.4788 18.2348 80.4788 17.9205C80.4788 17.5985 80.5963 17.3258 80.8311 17.1023C81.0659 16.8788 81.3463 16.767 81.672 16.767C82.0016 16.767 82.28 16.8788 82.5072 17.1023C82.7383 17.3258 82.8538 17.5985 82.8538 17.9205C82.8538 18.2348 82.7383 18.5076 82.5072 18.7386C82.28 18.9659 82.0016 19.0795 81.672 19.0795ZM85.1493 19.0795C84.8235 19.0795 84.5432 18.9659 84.3084 18.7386C84.0735 18.5076 83.9561 18.2348 83.9561 17.9205C83.9561 17.5985 84.0735 17.3258 84.3084 17.1023C84.5432 16.8788 84.8235 16.767 85.1493 16.767C85.4788 16.767 85.7572 16.8788 85.9845 17.1023C86.2156 17.3258 86.3311 17.5985 86.3311 17.9205C86.3311 18.2348 86.2156 18.5076 85.9845 18.7386C85.7572 18.9659 85.4788 19.0795 85.1493 19.0795ZM91.7558 23.9545V29H89.3354V20.2727H91.6422V21.8125H91.7445C91.9376 21.3049 92.2615 20.9034 92.716 20.608C93.1706 20.3087 93.7217 20.1591 94.3695 20.1591C94.9755 20.1591 95.5039 20.2917 95.9547 20.5568C96.4054 20.822 96.7558 21.2008 97.0058 21.6932C97.2558 22.1818 97.3808 22.7652 97.3808 23.4432V29H94.9604V23.875C94.9642 23.3409 94.8278 22.9242 94.5513 22.625C94.2748 22.322 93.8941 22.1705 93.4092 22.1705C93.0835 22.1705 92.7956 22.2405 92.5456 22.3807C92.2994 22.5208 92.1062 22.7254 91.966 22.9943C91.8297 23.2595 91.7596 23.5795 91.7558 23.9545ZM103.232 29.1705C102.338 29.1705 101.569 28.9811 100.925 28.6023C100.285 28.2197 99.7923 27.6894 99.4476 27.0114C99.1067 26.3333 98.9362 25.553 98.9362 24.6705C98.9362 23.7765 99.1086 22.9924 99.4533 22.3182C99.8017 21.6402 100.296 21.1117 100.936 20.733C101.576 20.3504 102.338 20.1591 103.22 20.1591C103.982 20.1591 104.648 20.2973 105.22 20.5739C105.792 20.8504 106.245 21.2386 106.578 21.7386C106.912 22.2386 107.095 22.8258 107.129 23.5H104.845C104.781 23.0644 104.61 22.714 104.334 22.4489C104.061 22.1799 103.703 22.0455 103.26 22.0455C102.885 22.0455 102.557 22.1477 102.277 22.3523C102.001 22.553 101.785 22.8466 101.629 23.233C101.474 23.6193 101.396 24.0871 101.396 24.6364C101.396 25.1932 101.472 25.6667 101.624 26.0568C101.779 26.447 101.997 26.7443 102.277 26.9489C102.557 27.1534 102.885 27.2557 103.26 27.2557C103.537 27.2557 103.785 27.1989 104.004 27.0852C104.228 26.9716 104.412 26.8068 104.556 26.5909C104.703 26.3712 104.8 26.108 104.845 25.8011H107.129C107.092 26.4678 106.91 27.0549 106.584 27.5625C106.262 28.0663 105.817 28.4602 105.249 28.7443C104.681 29.0284 104.008 29.1705 103.232 29.1705ZM112.656 29.1705C111.759 29.1705 110.986 28.9886 110.338 28.625C109.694 28.2576 109.198 27.7386 108.85 27.0682C108.501 26.3939 108.327 25.5966 108.327 24.6761C108.327 23.7784 108.501 22.9905 108.85 22.3125C109.198 21.6345 109.689 21.1061 110.321 20.7273C110.958 20.3485 111.704 20.1591 112.56 20.1591C113.136 20.1591 113.672 20.2519 114.168 20.4375C114.668 20.6193 115.103 20.8939 115.475 21.2614C115.85 21.6288 116.141 22.0909 116.35 22.6477C116.558 23.2008 116.662 23.8485 116.662 24.5909V25.2557H109.293V23.7557H114.384C114.384 23.4072 114.308 23.0985 114.156 22.8295C114.005 22.5606 113.795 22.3504 113.526 22.1989C113.261 22.0436 112.952 21.9659 112.6 21.9659C112.232 21.9659 111.906 22.0511 111.622 22.2216C111.342 22.3883 111.122 22.6136 110.963 22.8977C110.804 23.178 110.723 23.4905 110.719 23.8352V25.2614C110.719 25.6932 110.798 26.0663 110.958 26.3807C111.12 26.6951 111.35 26.9375 111.645 27.108C111.94 27.2784 112.291 27.3636 112.696 27.3636C112.965 27.3636 113.211 27.3258 113.435 27.25C113.658 27.1742 113.85 27.0606 114.009 26.9091C114.168 26.7576 114.289 26.572 114.372 26.3523L116.611 26.5C116.497 27.0379 116.264 27.5076 115.912 27.9091C115.564 28.3068 115.113 28.6174 114.56 28.8409C114.011 29.0606 113.376 29.1705 112.656 29.1705ZM120.662 17.3636V29H118.242V17.3636H120.662ZM125.021 17.3636V29H122.601V17.3636H125.021ZM130.938 29.1705C130.04 29.1705 129.267 28.9886 128.619 28.625C127.976 28.2576 127.479 27.7386 127.131 27.0682C126.782 26.3939 126.608 25.5966 126.608 24.6761C126.608 23.7784 126.782 22.9905 127.131 22.3125C127.479 21.6345 127.97 21.1061 128.602 20.7273C129.239 20.3485 129.985 20.1591 130.841 20.1591C131.417 20.1591 131.953 20.2519 132.449 20.4375C132.949 20.6193 133.385 20.8939 133.756 21.2614C134.131 21.6288 134.422 22.0909 134.631 22.6477C134.839 23.2008 134.943 23.8485 134.943 24.5909V25.2557H127.574V23.7557H132.665C132.665 23.4072 132.589 23.0985 132.438 22.8295C132.286 22.5606 132.076 22.3504 131.807 22.1989C131.542 22.0436 131.233 21.9659 130.881 21.9659C130.513 21.9659 130.188 22.0511 129.904 22.2216C129.623 22.3883 129.404 22.6136 129.244 22.8977C129.085 23.178 129.004 23.4905 129 23.8352V25.2614C129 25.6932 129.08 26.0663 129.239 26.3807C129.402 26.6951 129.631 26.9375 129.926 27.108C130.222 27.2784 130.572 27.3636 130.977 27.3636C131.246 27.3636 131.493 27.3258 131.716 27.25C131.94 27.1742 132.131 27.0606 132.29 26.9091C132.449 26.7576 132.57 26.572 132.654 26.3523L134.892 26.5C134.779 27.0379 134.546 27.5076 134.193 27.9091C133.845 28.3068 133.394 28.6174 132.841 28.8409C132.292 29.0606 131.657 29.1705 130.938 29.1705Z" fill="black"/>
</svg>
