<svg width="530" height="547" viewBox="0 0 530 547" fill="none" xmlns="http://www.w3.org/2000/svg">
<circle cx="438.396" cy="455.311" r="70" transform="rotate(-21.9804 438.396 455.311)" fill="#82026F"/>
<circle cx="70.442" cy="70.0265" r="70" fill="#82026F"/>
<circle cx="311.785" cy="109.569" r="70" transform="rotate(-21.9804 311.785 109.569)" fill="#82026F"/>
<circle cx="186.846" cy="358.421" r="70" transform="rotate(-21.9804 186.846 358.421)" fill="#82026F"/>
<path d="M275.527 347.755C272.497 346.484 269.464 346 266.433 346C256.81 345.999 247.189 350.87 237.566 350.87C235.153 350.87 232.741 350.564 230.328 349.798C230.057 349.713 229.785 349.672 229.519 349.672C228.175 349.672 227 350.712 227 352.157V376.943C227 377.93 227.565 378.865 228.472 379.245C231.502 380.516 234.535 381 237.566 381C247.189 381 256.811 376.129 266.434 376.129C268.847 376.129 271.259 376.435 273.672 377.201C273.943 377.287 274.215 377.327 274.481 377.327C275.825 377.327 277 376.287 277 374.842V350.057C276.999 349.07 276.434 348.135 275.527 347.755ZM230.75 353.83C232.322 354.223 233.962 354.421 235.65 354.527C235.19 356.823 233.172 358.554 230.75 358.554V353.83ZM230.75 376.095V372.362C233.435 372.362 235.608 374.493 235.727 377.159C233.967 377.018 232.322 376.666 230.75 376.095ZM252 371C248.547 371 245.75 367.641 245.75 363.5C245.75 359.358 248.548 356 252 356C255.451 356 258.25 359.358 258.25 363.5C258.25 367.643 255.45 371 252 371ZM273.249 373.17C271.881 372.827 270.459 372.635 269.006 372.511C269.464 370.473 271.154 368.927 273.249 368.661V373.17ZM273.249 354.724C270.836 354.419 268.963 352.404 268.889 349.916C270.416 350.085 271.865 350.402 273.249 350.905V354.724Z" fill="white"/>
<path d="M146.88 326.937L146.682 322.823L154.052 315.057H158.012L151.368 322.207L149.388 324.319L146.88 326.937ZM143.69 330.457V315.057H147.232V330.457H143.69ZM154.228 330.457L148.75 323.747L151.082 321.217L158.386 330.457H154.228ZM164.871 330.633C163.609 330.633 162.487 330.369 161.505 329.841C160.537 329.313 159.767 328.594 159.195 327.685C158.637 326.761 158.359 325.712 158.359 324.539C158.359 323.351 158.637 322.302 159.195 321.393C159.767 320.469 160.537 319.75 161.505 319.237C162.487 318.709 163.609 318.445 164.871 318.445C166.117 318.445 167.232 318.709 168.215 319.237C169.197 319.75 169.967 320.462 170.525 321.371C171.082 322.28 171.361 323.336 171.361 324.539C171.361 325.712 171.082 326.761 170.525 327.685C169.967 328.594 169.197 329.313 168.215 329.841C167.232 330.369 166.117 330.633 164.871 330.633ZM164.871 327.817C165.443 327.817 165.956 327.685 166.411 327.421C166.865 327.157 167.225 326.783 167.489 326.299C167.753 325.8 167.885 325.214 167.885 324.539C167.885 323.85 167.753 323.263 167.489 322.779C167.225 322.295 166.865 321.921 166.411 321.657C165.956 321.393 165.443 321.261 164.871 321.261C164.299 321.261 163.785 321.393 163.331 321.657C162.876 321.921 162.509 322.295 162.231 322.779C161.967 323.263 161.835 323.85 161.835 324.539C161.835 325.214 161.967 325.8 162.231 326.299C162.509 326.783 162.876 327.157 163.331 327.421C163.785 327.685 164.299 327.817 164.871 327.817ZM173.655 330.457V314.133H177.087V330.457H173.655ZM187.532 330.457V328.147L187.312 327.641V323.505C187.312 322.772 187.085 322.2 186.63 321.789C186.19 321.378 185.508 321.173 184.584 321.173C183.953 321.173 183.33 321.276 182.714 321.481C182.113 321.672 181.599 321.936 181.174 322.273L179.942 319.875C180.587 319.42 181.365 319.068 182.274 318.819C183.183 318.57 184.107 318.445 185.046 318.445C186.85 318.445 188.251 318.87 189.248 319.721C190.245 320.572 190.744 321.899 190.744 323.703V330.457H187.532ZM183.924 330.633C183 330.633 182.208 330.479 181.548 330.171C180.888 329.848 180.382 329.416 180.03 328.873C179.678 328.33 179.502 327.722 179.502 327.047C179.502 326.343 179.671 325.727 180.008 325.199C180.36 324.671 180.91 324.26 181.658 323.967C182.406 323.659 183.381 323.505 184.584 323.505H187.73V325.507H184.958C184.151 325.507 183.594 325.639 183.286 325.903C182.993 326.167 182.846 326.497 182.846 326.893C182.846 327.333 183.015 327.685 183.352 327.949C183.704 328.198 184.181 328.323 184.782 328.323C185.354 328.323 185.867 328.191 186.322 327.927C186.777 327.648 187.107 327.245 187.312 326.717L187.84 328.301C187.591 329.064 187.136 329.643 186.476 330.039C185.816 330.435 184.965 330.633 183.924 330.633ZM195.131 334.901C194.515 334.901 193.906 334.806 193.305 334.615C192.704 334.424 192.212 334.16 191.831 333.823L193.085 331.381C193.349 331.616 193.65 331.799 193.987 331.931C194.339 332.063 194.684 332.129 195.021 332.129C195.505 332.129 195.886 332.012 196.165 331.777C196.458 331.557 196.722 331.183 196.957 330.655L197.573 329.203L197.837 328.829L202.083 318.621H205.383L200.037 331.183C199.656 332.136 199.216 332.884 198.717 333.427C198.233 333.97 197.69 334.351 197.089 334.571C196.502 334.791 195.85 334.901 195.131 334.901ZM197.155 330.919L191.875 318.621H195.417L199.509 328.521L197.155 330.919ZM212.181 330.633C210.905 330.633 209.769 330.376 208.771 329.863C207.774 329.335 206.989 328.609 206.417 327.685C205.86 326.761 205.581 325.712 205.581 324.539C205.581 323.351 205.86 322.302 206.417 321.393C206.989 320.469 207.774 319.75 208.771 319.237C209.769 318.709 210.905 318.445 212.181 318.445C213.428 318.445 214.513 318.709 215.437 319.237C216.361 319.75 217.043 320.491 217.483 321.459L214.821 322.889C214.513 322.332 214.125 321.921 213.655 321.657C213.201 321.393 212.702 321.261 212.159 321.261C211.573 321.261 211.045 321.393 210.575 321.657C210.106 321.921 209.732 322.295 209.453 322.779C209.189 323.263 209.057 323.85 209.057 324.539C209.057 325.228 209.189 325.815 209.453 326.299C209.732 326.783 210.106 327.157 210.575 327.421C211.045 327.685 211.573 327.817 212.159 327.817C212.702 327.817 213.201 327.692 213.655 327.443C214.125 327.179 214.513 326.761 214.821 326.189L217.483 327.641C217.043 328.594 216.361 329.335 215.437 329.863C214.513 330.376 213.428 330.633 212.181 330.633ZM226.719 330.457V328.147L226.499 327.641V323.505C226.499 322.772 226.272 322.2 225.817 321.789C225.377 321.378 224.695 321.173 223.771 321.173C223.141 321.173 222.517 321.276 221.901 321.481C221.3 321.672 220.787 321.936 220.361 322.273L219.129 319.875C219.775 319.42 220.552 319.068 221.461 318.819C222.371 318.57 223.295 318.445 224.233 318.445C226.037 318.445 227.438 318.87 228.435 319.721C229.433 320.572 229.931 321.899 229.931 323.703V330.457H226.719ZM223.111 330.633C222.187 330.633 221.395 330.479 220.735 330.171C220.075 329.848 219.569 329.416 219.217 328.873C218.865 328.33 218.689 327.722 218.689 327.047C218.689 326.343 218.858 325.727 219.195 325.199C219.547 324.671 220.097 324.26 220.845 323.967C221.593 323.659 222.569 323.505 223.771 323.505H226.917V325.507H224.145C223.339 325.507 222.781 325.639 222.473 325.903C222.18 326.167 222.033 326.497 222.033 326.893C222.033 327.333 222.202 327.685 222.539 327.949C222.891 328.198 223.368 328.323 223.969 328.323C224.541 328.323 225.055 328.191 225.509 327.927C225.964 327.648 226.294 327.245 226.499 326.717L227.027 328.301C226.778 329.064 226.323 329.643 225.663 330.039C225.003 330.435 224.153 330.633 223.111 330.633ZM162.868 357.457V351.165L163.682 353.321L156.906 342.057H160.69L165.882 350.703H163.704L168.918 342.057H172.416L165.64 353.321L166.432 351.165V357.457H162.868ZM179.486 357.457V355.147L179.266 354.641V350.505C179.266 349.772 179.039 349.2 178.584 348.789C178.144 348.378 177.462 348.173 176.538 348.173C175.907 348.173 175.284 348.276 174.668 348.481C174.067 348.672 173.553 348.936 173.128 349.273L171.896 346.875C172.541 346.42 173.319 346.068 174.228 345.819C175.137 345.57 176.061 345.445 177 345.445C178.804 345.445 180.205 345.87 181.202 346.721C182.199 347.572 182.698 348.899 182.698 350.703V357.457H179.486ZM175.878 357.633C174.954 357.633 174.162 357.479 173.502 357.171C172.842 356.848 172.336 356.416 171.984 355.873C171.632 355.33 171.456 354.722 171.456 354.047C171.456 353.343 171.625 352.727 171.962 352.199C172.314 351.671 172.864 351.26 173.612 350.967C174.36 350.659 175.335 350.505 176.538 350.505H179.684V352.507H176.912C176.105 352.507 175.548 352.639 175.24 352.903C174.947 353.167 174.8 353.497 174.8 353.893C174.8 354.333 174.969 354.685 175.306 354.949C175.658 355.198 176.135 355.323 176.736 355.323C177.308 355.323 177.821 355.191 178.276 354.927C178.731 354.648 179.061 354.245 179.266 353.717L179.794 355.301C179.545 356.064 179.09 356.643 178.43 357.039C177.77 357.435 176.919 357.633 175.878 357.633ZM190.644 357.633C189.251 357.633 188.165 357.281 187.388 356.577C186.611 355.858 186.222 354.795 186.222 353.387V343.003H189.654V353.343C189.654 353.842 189.786 354.23 190.05 354.509C190.314 354.773 190.673 354.905 191.128 354.905C191.671 354.905 192.133 354.758 192.514 354.465L193.438 356.885C193.086 357.134 192.661 357.325 192.162 357.457C191.678 357.574 191.172 357.633 190.644 357.633ZM184.396 348.525V345.885H192.602V348.525H184.396ZM195.365 357.457V345.621H198.797V357.457H195.365ZM201.982 357.457V345.621H205.26V348.965L204.798 347.997C205.15 347.161 205.714 346.53 206.492 346.105C207.269 345.665 208.215 345.445 209.33 345.445V348.613C209.183 348.598 209.051 348.591 208.934 348.591C208.816 348.576 208.692 348.569 208.56 348.569C207.621 348.569 206.858 348.84 206.272 349.383C205.7 349.911 205.414 350.74 205.414 351.869V357.457H201.982ZM174.987 384.457L170.015 372.621H173.557L177.693 382.807H175.933L180.223 372.621H183.523L178.529 384.457H174.987ZM190.475 384.633C189.126 384.633 187.938 384.369 186.911 383.841C185.899 383.313 185.114 382.594 184.557 381.685C184 380.761 183.721 379.712 183.721 378.539C183.721 377.351 183.992 376.302 184.535 375.393C185.092 374.469 185.848 373.75 186.801 373.237C187.754 372.709 188.832 372.445 190.035 372.445C191.194 372.445 192.235 372.694 193.159 373.193C194.098 373.677 194.838 374.381 195.381 375.305C195.924 376.214 196.195 377.307 196.195 378.583C196.195 378.715 196.188 378.869 196.173 379.045C196.158 379.206 196.144 379.36 196.129 379.507H186.515V377.505H194.325L193.005 378.099C193.005 377.483 192.88 376.948 192.631 376.493C192.382 376.038 192.037 375.686 191.597 375.437C191.157 375.173 190.644 375.041 190.057 375.041C189.47 375.041 188.95 375.173 188.495 375.437C188.055 375.686 187.71 376.046 187.461 376.515C187.212 376.97 187.087 377.512 187.087 378.143V378.671C187.087 379.316 187.226 379.888 187.505 380.387C187.798 380.871 188.202 381.245 188.715 381.509C189.243 381.758 189.859 381.883 190.563 381.883C191.194 381.883 191.744 381.788 192.213 381.597C192.697 381.406 193.137 381.12 193.533 380.739L195.359 382.719C194.816 383.335 194.134 383.812 193.313 384.149C192.492 384.472 191.546 384.633 190.475 384.633ZM173.79 411.721C172.602 411.721 171.495 411.53 170.468 411.149C169.456 410.753 168.576 410.196 167.828 409.477C167.08 408.758 166.493 407.915 166.068 406.947C165.657 405.979 165.452 404.916 165.452 403.757C165.452 402.598 165.657 401.535 166.068 400.567C166.493 399.599 167.08 398.756 167.828 398.037C168.591 397.318 169.478 396.768 170.49 396.387C171.502 395.991 172.609 395.793 173.812 395.793C175.147 395.793 176.349 396.028 177.42 396.497C178.505 396.952 179.415 397.626 180.148 398.521L177.86 400.633C177.332 400.032 176.745 399.584 176.1 399.291C175.455 398.983 174.751 398.829 173.988 398.829C173.269 398.829 172.609 398.946 172.008 399.181C171.407 399.416 170.886 399.753 170.446 400.193C170.006 400.633 169.661 401.154 169.412 401.755C169.177 402.356 169.06 403.024 169.06 403.757C169.06 404.49 169.177 405.158 169.412 405.759C169.661 406.36 170.006 406.881 170.446 407.321C170.886 407.761 171.407 408.098 172.008 408.333C172.609 408.568 173.269 408.685 173.988 408.685C174.751 408.685 175.455 408.538 176.1 408.245C176.745 407.937 177.332 407.475 177.86 406.859L180.148 408.971C179.415 409.866 178.505 410.548 177.42 411.017C176.349 411.486 175.139 411.721 173.79 411.721ZM172.602 416.561C172.221 416.561 171.847 416.517 171.48 416.429C171.128 416.341 170.82 416.231 170.556 416.099L171.084 414.625C171.304 414.728 171.531 414.808 171.766 414.867C172.001 414.926 172.25 414.955 172.514 414.955C172.925 414.955 173.218 414.889 173.394 414.757C173.57 414.625 173.658 414.456 173.658 414.251C173.658 414.06 173.57 413.906 173.394 413.789C173.233 413.672 172.961 413.613 172.58 413.613H171.832L172.404 411.281H174.23L173.922 412.557C174.582 412.63 175.066 412.836 175.374 413.173C175.682 413.525 175.836 413.928 175.836 414.383C175.836 415.043 175.543 415.571 174.956 415.967C174.369 416.363 173.585 416.561 172.602 416.561ZM187.779 411.633C186.429 411.633 185.241 411.369 184.215 410.841C183.203 410.313 182.418 409.594 181.861 408.685C181.303 407.761 181.025 406.712 181.025 405.539C181.025 404.351 181.296 403.302 181.839 402.393C182.396 401.469 183.151 400.75 184.105 400.237C185.058 399.709 186.136 399.445 187.339 399.445C188.497 399.445 189.539 399.694 190.463 400.193C191.401 400.677 192.142 401.381 192.685 402.305C193.227 403.214 193.499 404.307 193.499 405.583C193.499 405.715 193.491 405.869 193.477 406.045C193.462 406.206 193.447 406.36 193.433 406.507H183.819V404.505H191.629L190.309 405.099C190.309 404.483 190.184 403.948 189.935 403.493C189.685 403.038 189.341 402.686 188.901 402.437C188.461 402.173 187.947 402.041 187.361 402.041C186.774 402.041 186.253 402.173 185.799 402.437C185.359 402.686 185.014 403.046 184.765 403.515C184.515 403.97 184.391 404.512 184.391 405.143V405.671C184.391 406.316 184.53 406.888 184.809 407.387C185.102 407.871 185.505 408.245 186.019 408.509C186.547 408.758 187.163 408.883 187.867 408.883C188.497 408.883 189.047 408.788 189.517 408.597C190.001 408.406 190.441 408.12 190.837 407.739L192.663 409.719C192.12 410.335 191.438 410.812 190.617 411.149C189.795 411.472 188.849 411.633 187.779 411.633ZM198.622 409.037L198.71 404.857L204.232 399.621H208.324L203.022 405.011L201.24 406.463L198.622 409.037ZM195.784 411.457V395.133H199.216V411.457H195.784ZM204.606 411.457L200.602 406.485L202.758 403.823L208.764 411.457H204.606Z" fill="white"/>
<path d="M20.4497 64.8883C19.2617 64.8883 18.1543 64.6976 17.1277 64.3163C16.1157 63.9203 15.2357 63.3629 14.4877 62.6443C13.7397 61.9256 13.153 61.0823 12.7277 60.1143C12.317 59.1463 12.1117 58.0829 12.1117 56.9243C12.1117 55.7656 12.317 54.7023 12.7277 53.7343C13.153 52.7663 13.7397 51.9229 14.4877 51.2043C15.2503 50.4856 16.1377 49.9356 17.1497 49.5543C18.1617 49.1583 19.269 48.9603 20.4717 48.9603C21.8063 48.9603 23.009 49.1949 24.0797 49.6643C25.165 50.1189 26.0743 50.7936 26.8077 51.6883L24.5197 53.8003C23.9917 53.1989 23.405 52.7516 22.7597 52.4583C22.1143 52.1503 21.4103 51.9963 20.6477 51.9963C19.929 51.9963 19.269 52.1136 18.6677 52.3483C18.0663 52.5829 17.5457 52.9203 17.1057 53.3603C16.6657 53.8003 16.321 54.3209 16.0717 54.9223C15.837 55.5236 15.7197 56.1909 15.7197 56.9243C15.7197 57.6576 15.837 58.3249 16.0717 58.9263C16.321 59.5276 16.6657 60.0483 17.1057 60.4883C17.5457 60.9283 18.0663 61.2656 18.6677 61.5003C19.269 61.7349 19.929 61.8523 20.6477 61.8523C21.4103 61.8523 22.1143 61.7056 22.7597 61.4123C23.405 61.1043 23.9917 60.6423 24.5197 60.0263L26.8077 62.1383C26.0743 63.0329 25.165 63.7149 24.0797 64.1843C23.009 64.6536 21.799 64.8883 20.4497 64.8883ZM33.6871 64.8003C32.7045 64.8003 31.8245 64.6096 31.0471 64.2283C30.2845 63.8469 29.6905 63.2676 29.2651 62.4903C28.8398 61.6983 28.6271 60.6936 28.6271 59.4763V52.7883H32.0591V58.9703C32.0591 59.9529 32.2645 60.6789 32.6751 61.1483C33.1005 61.6029 33.6945 61.8303 34.4571 61.8303C34.9851 61.8303 35.4545 61.7203 35.8651 61.5003C36.2758 61.2656 36.5985 60.9136 36.8331 60.4443C37.0678 59.9603 37.1851 59.3589 37.1851 58.6403V52.7883H40.6171V64.6243H37.3611V61.3683L37.9551 62.3143C37.5591 63.1356 36.9725 63.7589 36.1951 64.1843C35.4325 64.5949 34.5965 64.8003 33.6871 64.8003ZM36.8331 51.1603C36.4078 51.1603 36.0485 51.0209 35.7551 50.7423C35.4618 50.4636 35.3151 50.0969 35.3151 49.6423C35.3151 49.1876 35.4618 48.8209 35.7551 48.5423C36.0485 48.2636 36.4078 48.1243 36.8331 48.1243C37.2585 48.1243 37.6178 48.2636 37.9111 48.5423C38.2191 48.8209 38.3731 49.1876 38.3731 49.6423C38.3731 50.0969 38.2191 50.4636 37.9111 50.7423C37.6178 51.0209 37.2585 51.1603 36.8331 51.1603ZM32.3891 51.1603C31.9638 51.1603 31.5971 51.0209 31.2891 50.7423C30.9958 50.4636 30.8491 50.0969 30.8491 49.6423C30.8491 49.1876 30.9958 48.8209 31.2891 48.5423C31.5971 48.2636 31.9638 48.1243 32.3891 48.1243C32.8145 48.1243 33.1738 48.2636 33.4671 48.5423C33.7605 48.8209 33.9071 49.1876 33.9071 49.6423C33.9071 50.0969 33.7605 50.4636 33.4671 50.7423C33.1738 51.0209 32.8145 51.1603 32.3891 51.1603ZM42.9826 64.6243V62.5563L49.9786 54.2843L50.5726 55.4283H43.1366V52.7883H53.3446V54.8563L46.3486 63.1283L45.7326 61.9843H53.5426V64.6243H42.9826ZM60.6736 64.8003C59.5589 64.8003 58.5542 64.5509 57.6596 64.0523C56.7649 63.5389 56.0536 62.8276 55.5256 61.9183C55.0122 61.0089 54.7556 59.9383 54.7556 58.7063C54.7556 57.4596 55.0122 56.3816 55.5256 55.4723C56.0536 54.5629 56.7649 53.8589 57.6596 53.3603C58.5542 52.8616 59.5589 52.6123 60.6736 52.6123C61.6709 52.6123 62.5436 52.8323 63.2916 53.2723C64.0396 53.7123 64.6189 54.3796 65.0296 55.2743C65.4402 56.1689 65.6456 57.3129 65.6456 58.7063C65.6456 60.0849 65.4476 61.2289 65.0516 62.1383C64.6556 63.0329 64.0836 63.7003 63.3356 64.1403C62.6022 64.5803 61.7149 64.8003 60.6736 64.8003ZM61.2676 61.9843C61.8249 61.9843 62.3309 61.8523 62.7856 61.5883C63.2402 61.3243 63.5996 60.9503 63.8636 60.4663C64.1422 59.9676 64.2816 59.3809 64.2816 58.7063C64.2816 58.0169 64.1422 57.4303 63.8636 56.9463C63.5996 56.4623 63.2402 56.0883 62.7856 55.8243C62.3309 55.5603 61.8249 55.4283 61.2676 55.4283C60.6956 55.4283 60.1822 55.5603 59.7276 55.8243C59.2729 56.0883 58.9062 56.4623 58.6276 56.9463C58.3636 57.4303 58.2316 58.0169 58.2316 58.7063C58.2316 59.3809 58.3636 59.9676 58.6276 60.4663C58.9062 60.9503 59.2729 61.3243 59.7276 61.5883C60.1822 61.8523 60.6956 61.9843 61.2676 61.9843ZM64.3696 64.6243V62.2043L64.4356 58.6843L64.2156 55.1863V48.3003H67.6476V64.6243H64.3696ZM78.084 64.6243V62.3143L77.864 61.8083V57.6723C77.864 56.9389 77.6367 56.3669 77.182 55.9563C76.742 55.5456 76.06 55.3403 75.136 55.3403C74.5053 55.3403 73.882 55.4429 73.266 55.6483C72.6647 55.8389 72.1513 56.1029 71.726 56.4403L70.494 54.0423C71.1393 53.5876 71.9167 53.2356 72.826 52.9863C73.7353 52.7369 74.6593 52.6123 75.598 52.6123C77.402 52.6123 78.8027 53.0376 79.8 53.8883C80.7973 54.7389 81.296 56.0663 81.296 57.8703V64.6243H78.084ZM74.476 64.8003C73.552 64.8003 72.76 64.6463 72.1 64.3383C71.44 64.0156 70.934 63.5829 70.582 63.0403C70.23 62.4976 70.054 61.8889 70.054 61.2143C70.054 60.5103 70.2227 59.8943 70.56 59.3663C70.912 58.8383 71.462 58.4276 72.21 58.1343C72.958 57.8263 73.9333 57.6723 75.136 57.6723H78.282V59.6743H75.51C74.7033 59.6743 74.146 59.8063 73.838 60.0703C73.5447 60.3343 73.398 60.6643 73.398 61.0603C73.398 61.5003 73.5667 61.8523 73.904 62.1163C74.256 62.3656 74.7327 62.4903 75.334 62.4903C75.906 62.4903 76.4193 62.3583 76.874 62.0943C77.3287 61.8156 77.6587 61.4123 77.864 60.8843L78.392 62.4683C78.1427 63.2309 77.688 63.8103 77.028 64.2063C76.368 64.6023 75.5173 64.8003 74.476 64.8003ZM91.5961 52.6123C92.5348 52.6123 93.3708 52.8029 94.1041 53.1843C94.8521 53.5509 95.4388 54.1229 95.8641 54.9003C96.2894 55.6629 96.5021 56.6456 96.5021 57.8483V64.6243H93.0701V58.3763C93.0701 57.4229 92.8574 56.7189 92.4321 56.2643C92.0214 55.8096 91.4348 55.5823 90.6721 55.5823C90.1294 55.5823 89.6381 55.6996 89.1981 55.9343C88.7728 56.1543 88.4354 56.4989 88.1861 56.9683C87.9514 57.4376 87.8341 58.0389 87.8341 58.7723V64.6243H84.4021V52.7883H87.6801V56.0663L87.0641 55.0763C87.4894 54.2843 88.0981 53.6756 88.8901 53.2503C89.6821 52.8249 90.5841 52.6123 91.5961 52.6123ZM99.6131 64.6243V52.7883H103.045V64.6243H99.6131ZM113.424 52.6123C114.363 52.6123 115.199 52.8029 115.932 53.1843C116.68 53.5509 117.267 54.1229 117.692 54.9003C118.118 55.6629 118.33 56.6456 118.33 57.8483V64.6243H114.898V58.3763C114.898 57.4229 114.686 56.7189 114.26 56.2643C113.85 55.8096 113.263 55.5823 112.5 55.5823C111.958 55.5823 111.466 55.6996 111.026 55.9343C110.601 56.1543 110.264 56.4989 110.014 56.9683C109.78 57.4376 109.662 58.0389 109.662 58.7723V64.6243H106.23V52.7883H109.508V56.0663L108.892 55.0763C109.318 54.2843 109.926 53.6756 110.718 53.2503C111.51 52.8249 112.412 52.6123 113.424 52.6123ZM121.441 64.6243V52.7883H124.873V64.6243H121.441ZM37.647 91.6243V76.2243H45.171C47.107 76.2243 48.559 76.5909 49.527 77.3243C50.5097 78.0576 51.001 79.0256 51.001 80.2283C51.001 81.0349 50.803 81.7389 50.407 82.3403C50.011 82.9269 49.4684 83.3816 48.779 83.7043C48.0897 84.0269 47.2977 84.1883 46.403 84.1883L46.821 83.2863C47.789 83.2863 48.647 83.4476 49.395 83.7703C50.143 84.0783 50.7224 84.5403 51.133 85.1563C51.5584 85.7723 51.771 86.5276 51.771 87.4223C51.771 88.7423 51.2504 89.7763 50.209 90.5243C49.1677 91.2576 47.635 91.6243 45.611 91.6243H37.647ZM41.189 88.9403H45.347C46.271 88.9403 46.9677 88.7936 47.437 88.5003C47.921 88.1923 48.163 87.7083 48.163 87.0483C48.163 86.4029 47.921 85.9263 47.437 85.6183C46.9677 85.2956 46.271 85.1343 45.347 85.1343H40.925V82.5383H44.731C45.5964 82.5383 46.2564 82.3916 46.711 82.0983C47.1804 81.7903 47.415 81.3283 47.415 80.7123C47.415 80.1109 47.1804 79.6636 46.711 79.3703C46.2564 79.0623 45.5964 78.9083 44.731 78.9083H41.189V88.9403ZM61.4873 91.6243V89.3143L61.2673 88.8083V84.6723C61.2673 83.9389 61.04 83.3669 60.5853 82.9563C60.1453 82.5456 59.4633 82.3403 58.5393 82.3403C57.9086 82.3403 57.2853 82.4429 56.6693 82.6483C56.068 82.8389 55.5546 83.1029 55.1293 83.4403L53.8973 81.0423C54.5426 80.5876 55.32 80.2356 56.2293 79.9863C57.1386 79.7369 58.0626 79.6123 59.0013 79.6123C60.8053 79.6123 62.206 80.0376 63.2033 80.8883C64.2006 81.7389 64.6993 83.0663 64.6993 84.8703V91.6243H61.4873ZM57.8793 91.8003C56.9553 91.8003 56.1633 91.6463 55.5033 91.3383C54.8433 91.0156 54.3373 90.5829 53.9853 90.0403C53.6333 89.4976 53.4573 88.8889 53.4573 88.2143C53.4573 87.5103 53.626 86.8943 53.9633 86.3663C54.3153 85.8383 54.8653 85.4276 55.6133 85.1343C56.3613 84.8263 57.3366 84.6723 58.5393 84.6723H61.6853V86.6743H58.9133C58.1066 86.6743 57.5493 86.8063 57.2413 87.0703C56.948 87.3343 56.8013 87.6643 56.8013 88.0603C56.8013 88.5003 56.97 88.8523 57.3073 89.1163C57.6593 89.3656 58.136 89.4903 58.7373 89.4903C59.3093 89.4903 59.8226 89.3583 60.2773 89.0943C60.732 88.8156 61.062 88.4123 61.2673 87.8843L61.7953 89.4683C61.546 90.2309 61.0913 90.8103 60.4313 91.2063C59.7713 91.6023 58.9206 91.8003 57.8793 91.8003ZM73.4574 96.0683C72.3427 96.0683 71.2647 95.9289 70.2234 95.6503C69.1967 95.3863 68.3387 94.9829 67.6494 94.4403L69.0134 91.9763C69.512 92.3869 70.1427 92.7096 70.9054 92.9443C71.6827 93.1936 72.4454 93.3183 73.1934 93.3183C74.4107 93.3183 75.2907 93.0469 75.8334 92.5043C76.3907 91.9616 76.6694 91.1549 76.6694 90.0843V88.3023L76.8894 85.3323L76.8454 82.3403V79.7883H80.1014V89.6443C80.1014 91.8443 79.5294 93.4649 78.3854 94.5063C77.2414 95.5476 75.5987 96.0683 73.4574 96.0683ZM72.9294 91.0523C71.8294 91.0523 70.832 90.8176 69.9374 90.3483C69.0574 89.8643 68.346 89.1969 67.8034 88.3463C67.2754 87.4809 67.0114 86.4763 67.0114 85.3323C67.0114 84.1736 67.2754 83.1689 67.8034 82.3183C68.346 81.4529 69.0574 80.7856 69.9374 80.3163C70.832 79.8469 71.8294 79.6123 72.9294 79.6123C73.9267 79.6123 74.8067 79.8176 75.5694 80.2283C76.332 80.6243 76.926 81.2476 77.3514 82.0983C77.7767 82.9343 77.9894 84.0123 77.9894 85.3323C77.9894 86.6376 77.7767 87.7156 77.3514 88.5663C76.926 89.4023 76.332 90.0256 75.5694 90.4363C74.8067 90.8469 73.9267 91.0523 72.9294 91.0523ZM73.6114 88.2363C74.2127 88.2363 74.748 88.1189 75.2174 87.8843C75.6867 87.6349 76.0534 87.2903 76.3174 86.8503C76.5814 86.4103 76.7134 85.9043 76.7134 85.3323C76.7134 84.7456 76.5814 84.2396 76.3174 83.8143C76.0534 83.3743 75.6867 83.0369 75.2174 82.8023C74.748 82.5529 74.2127 82.4283 73.6114 82.4283C73.01 82.4283 72.4747 82.5529 72.0054 82.8023C71.536 83.0369 71.162 83.3743 70.8834 83.8143C70.6194 84.2396 70.4874 84.7456 70.4874 85.3323C70.4874 85.9043 70.6194 86.4103 70.8834 86.8503C71.162 87.2903 71.536 87.6349 72.0054 87.8843C72.4747 88.1189 73.01 88.2363 73.6114 88.2363ZM73.8094 78.4463C72.6654 78.4463 71.712 78.1456 70.9494 77.5443C70.2014 76.9429 69.8054 76.1289 69.7614 75.1023H71.9174C71.9467 75.5863 72.1374 75.9676 72.4894 76.2463C72.856 76.5249 73.296 76.6643 73.8094 76.6643C74.3227 76.6643 74.7627 76.5249 75.1294 76.2463C75.496 75.9676 75.6867 75.5863 75.7014 75.1023H77.8574C77.8134 76.1289 77.41 76.9429 76.6474 77.5443C75.8994 78.1456 74.9534 78.4463 73.8094 78.4463ZM83.2957 91.6243V75.3003H86.7277V91.6243H83.2957ZM97.1729 91.6243V89.3143L96.9529 88.8083V84.6723C96.9529 83.9389 96.7255 83.3669 96.2709 82.9563C95.8309 82.5456 95.1489 82.3403 94.2249 82.3403C93.5942 82.3403 92.9709 82.4429 92.3549 82.6483C91.7535 82.8389 91.2402 83.1029 90.8149 83.4403L89.5829 81.0423C90.2282 80.5876 91.0055 80.2356 91.9149 79.9863C92.8242 79.7369 93.7482 79.6123 94.6869 79.6123C96.4909 79.6123 97.8915 80.0376 98.8889 80.8883C99.8862 81.7389 100.385 83.0663 100.385 84.8703V91.6243H97.1729ZM93.5649 91.8003C92.6409 91.8003 91.8489 91.6463 91.1889 91.3383C90.5289 91.0156 90.0229 90.5829 89.6709 90.0403C89.3189 89.4976 89.1429 88.8889 89.1429 88.2143C89.1429 87.5103 89.3115 86.8943 89.6489 86.3663C90.0009 85.8383 90.5509 85.4276 91.2989 85.1343C92.0469 84.8263 93.0222 84.6723 94.2249 84.6723H97.3709V86.6743H94.5989C93.7922 86.6743 93.2349 86.8063 92.9269 87.0703C92.6335 87.3343 92.4869 87.6643 92.4869 88.0603C92.4869 88.5003 92.6555 88.8523 92.9929 89.1163C93.3449 89.3656 93.8215 89.4903 94.4229 89.4903C94.9949 89.4903 95.5082 89.3583 95.9629 89.0943C96.4175 88.8156 96.7475 88.4123 96.9529 87.8843L97.4809 89.4683C97.2315 90.2309 96.7769 90.8103 96.1169 91.2063C95.4569 91.6023 94.6062 91.8003 93.5649 91.8003Z" fill="white"/>
<path d="M259.591 108.955C258.403 108.955 257.296 108.764 256.269 108.383C255.257 107.987 254.377 107.43 253.629 106.711C252.881 105.992 252.295 105.149 251.869 104.181C251.459 103.213 251.253 102.15 251.253 100.991C251.253 99.8324 251.459 98.769 251.869 97.801C252.295 96.833 252.881 95.9897 253.629 95.271C254.392 94.5524 255.279 94.0024 256.291 93.621C257.303 93.225 258.411 93.027 259.613 93.027C260.948 93.027 262.151 93.2617 263.221 93.731C264.307 94.1857 265.216 94.8604 265.949 95.755L263.661 97.867C263.133 97.2657 262.547 96.8184 261.901 96.525C261.256 96.217 260.552 96.063 259.789 96.063C259.071 96.063 258.411 96.1804 257.809 96.415C257.208 96.6497 256.687 96.987 256.247 97.427C255.807 97.867 255.463 98.3877 255.213 98.989C254.979 99.5904 254.861 100.258 254.861 100.991C254.861 101.724 254.979 102.392 255.213 102.993C255.463 103.594 255.807 104.115 256.247 104.555C256.687 104.995 257.208 105.332 257.809 105.567C258.411 105.802 259.071 105.919 259.789 105.919C260.552 105.919 261.256 105.772 261.901 105.479C262.547 105.171 263.133 104.709 263.661 104.093L265.949 106.205C265.216 107.1 264.307 107.782 263.221 108.251C262.151 108.72 260.941 108.955 259.591 108.955ZM258.403 113.795C258.022 113.795 257.648 113.751 257.281 113.663C256.929 113.575 256.621 113.465 256.357 113.333L256.885 111.859C257.105 111.962 257.333 112.042 257.567 112.101C257.802 112.16 258.051 112.189 258.315 112.189C258.726 112.189 259.019 112.123 259.195 111.991C259.371 111.859 259.459 111.69 259.459 111.485C259.459 111.294 259.371 111.14 259.195 111.023C259.034 110.906 258.763 110.847 258.381 110.847H257.633L258.205 108.515H260.031L259.723 109.791C260.383 109.864 260.867 110.07 261.175 110.407C261.483 110.759 261.637 111.162 261.637 111.617C261.637 112.277 261.344 112.805 260.757 113.201C260.171 113.597 259.386 113.795 258.403 113.795ZM273.338 108.867C272.076 108.867 270.954 108.603 269.972 108.075C269.004 107.547 268.234 106.828 267.662 105.919C267.104 104.995 266.826 103.946 266.826 102.773C266.826 101.585 267.104 100.536 267.662 99.627C268.234 98.703 269.004 97.9844 269.972 97.471C270.954 96.943 272.076 96.679 273.338 96.679C274.584 96.679 275.699 96.943 276.682 97.471C277.664 97.9844 278.434 98.6957 278.992 99.605C279.549 100.514 279.828 101.57 279.828 102.773C279.828 103.946 279.549 104.995 278.992 105.919C278.434 106.828 277.664 107.547 276.682 108.075C275.699 108.603 274.584 108.867 273.338 108.867ZM273.338 106.051C273.91 106.051 274.423 105.919 274.878 105.655C275.332 105.391 275.692 105.017 275.956 104.533C276.22 104.034 276.352 103.448 276.352 102.773C276.352 102.084 276.22 101.497 275.956 101.013C275.692 100.529 275.332 100.155 274.878 99.891C274.423 99.627 273.91 99.495 273.338 99.495C272.766 99.495 272.252 99.627 271.798 99.891C271.343 100.155 270.976 100.529 270.698 101.013C270.434 101.497 270.302 102.084 270.302 102.773C270.302 103.448 270.434 104.034 270.698 104.533C270.976 105.017 271.343 105.391 271.798 105.655C272.252 105.919 272.766 106.051 273.338 106.051ZM287.842 108.867C286.566 108.867 285.429 108.61 284.432 108.097C283.435 107.569 282.65 106.843 282.078 105.919C281.521 104.995 281.242 103.946 281.242 102.773C281.242 101.585 281.521 100.536 282.078 99.627C282.65 98.703 283.435 97.9844 284.432 97.471C285.429 96.943 286.566 96.679 287.842 96.679C289.089 96.679 290.174 96.943 291.098 97.471C292.022 97.9844 292.704 98.725 293.144 99.693L290.482 101.123C290.174 100.566 289.785 100.155 289.316 99.891C288.861 99.627 288.363 99.495 287.82 99.495C287.233 99.495 286.705 99.627 286.236 99.891C285.767 100.155 285.393 100.529 285.114 101.013C284.85 101.497 284.718 102.084 284.718 102.773C284.718 103.462 284.85 104.049 285.114 104.533C285.393 105.017 285.767 105.391 286.236 105.655C286.705 105.919 287.233 106.051 287.82 106.051C288.363 106.051 288.861 105.926 289.316 105.677C289.785 105.413 290.174 104.995 290.482 104.423L293.144 105.875C292.704 106.828 292.022 107.569 291.098 108.097C290.174 108.61 289.089 108.867 287.842 108.867ZM300.114 108.867C299.131 108.867 298.251 108.676 297.474 108.295C296.711 107.914 296.117 107.334 295.692 106.557C295.267 105.765 295.054 104.76 295.054 103.543V96.855H298.486V103.037C298.486 104.02 298.691 104.746 299.102 105.215C299.527 105.67 300.121 105.897 300.884 105.897C301.412 105.897 301.881 105.787 302.292 105.567C302.703 105.332 303.025 104.98 303.26 104.511C303.495 104.027 303.612 103.426 303.612 102.707V96.855H307.044V108.691H303.788V105.435L304.382 106.381C303.986 107.202 303.399 107.826 302.622 108.251C301.859 108.662 301.023 108.867 300.114 108.867ZM313.061 106.271L313.149 102.091L318.671 96.855H322.763L317.461 102.245L315.679 103.697L313.061 106.271ZM310.223 108.691V92.367H313.655V108.691H310.223ZM319.045 108.691L315.041 103.719L317.197 101.057L323.203 108.691H319.045ZM324.747 108.691V92.367H328.179V108.691H324.747ZM338.624 108.691V106.381L338.404 105.875V101.739C338.404 101.006 338.177 100.434 337.722 100.023C337.282 99.6124 336.6 99.407 335.676 99.407C335.045 99.407 334.422 99.5097 333.806 99.715C333.205 99.9057 332.691 100.17 332.266 100.507L331.034 98.109C331.679 97.6544 332.457 97.3024 333.366 97.053C334.275 96.8037 335.199 96.679 336.138 96.679C337.942 96.679 339.343 97.1044 340.34 97.955C341.337 98.8057 341.836 100.133 341.836 101.937V108.691H338.624ZM335.016 108.867C334.092 108.867 333.3 108.713 332.64 108.405C331.98 108.082 331.474 107.65 331.122 107.107C330.77 106.564 330.594 105.956 330.594 105.281C330.594 104.577 330.763 103.961 331.1 103.433C331.452 102.905 332.002 102.494 332.75 102.201C333.498 101.893 334.473 101.739 335.676 101.739H338.822V103.741H336.05C335.243 103.741 334.686 103.873 334.378 104.137C334.085 104.401 333.938 104.731 333.938 105.127C333.938 105.567 334.107 105.919 334.444 106.183C334.796 106.432 335.273 106.557 335.874 106.557C336.446 106.557 336.959 106.425 337.414 106.161C337.869 105.882 338.199 105.479 338.404 104.951L338.932 106.535C338.683 107.298 338.228 107.877 337.568 108.273C336.908 108.669 336.057 108.867 335.016 108.867ZM344.942 108.691V96.855H348.22V100.199L347.758 99.231C348.11 98.395 348.675 97.7644 349.452 97.339C350.229 96.899 351.175 96.679 352.29 96.679V99.847C352.143 99.8324 352.011 99.825 351.894 99.825C351.777 99.8104 351.652 99.803 351.52 99.803C350.581 99.803 349.819 100.074 349.232 100.617C348.66 101.145 348.374 101.974 348.374 103.103V108.691H344.942ZM354.352 108.691V96.855H357.784V108.691H354.352ZM368.163 96.679C369.102 96.679 369.938 96.8697 370.671 97.251C371.419 97.6177 372.006 98.1897 372.431 98.967C372.857 99.7297 373.069 100.712 373.069 101.915V108.691H369.637V102.443C369.637 101.49 369.425 100.786 368.999 100.331C368.589 99.8764 368.002 99.649 367.239 99.649C366.697 99.649 366.205 99.7664 365.765 100.001C365.34 100.221 365.003 100.566 364.753 101.035C364.519 101.504 364.401 102.106 364.401 102.839V108.691H360.969V96.855H364.247V100.133L363.631 99.143C364.057 98.351 364.665 97.7424 365.457 97.317C366.249 96.8917 367.151 96.679 368.163 96.679ZM376.18 108.691V96.855H379.612V108.691H376.18ZM292.904 126.495H300.318V129.267H292.904V126.495ZM293.168 132.831H301.55V135.691H289.626V120.291H301.264V123.151H293.168V132.831ZM306.981 133.271L307.069 129.091L312.591 123.855H316.683L311.381 129.245L309.599 130.697L306.981 133.271ZM304.143 135.691V119.367H307.575V135.691H304.143ZM312.965 135.691L308.961 130.719L311.117 128.057L317.123 135.691H312.965ZM318.667 135.691V119.367H322.099V135.691H318.667ZM331.158 135.867C329.809 135.867 328.621 135.603 327.594 135.075C326.582 134.547 325.797 133.828 325.24 132.919C324.683 131.995 324.404 130.946 324.404 129.773C324.404 128.585 324.675 127.536 325.218 126.627C325.775 125.703 326.531 124.984 327.484 124.471C328.437 123.943 329.515 123.679 330.718 123.679C331.877 123.679 332.918 123.928 333.842 124.427C334.781 124.911 335.521 125.615 336.064 126.539C336.607 127.448 336.878 128.541 336.878 129.817C336.878 129.949 336.871 130.103 336.856 130.279C336.841 130.44 336.827 130.594 336.812 130.741H327.198V128.739H335.008L333.688 129.333C333.688 128.717 333.563 128.182 333.314 127.727C333.065 127.272 332.72 126.92 332.28 126.671C331.84 126.407 331.327 126.275 330.74 126.275C330.153 126.275 329.633 126.407 329.178 126.671C328.738 126.92 328.393 127.28 328.144 127.749C327.895 128.204 327.77 128.746 327.77 129.377V129.905C327.77 130.55 327.909 131.122 328.188 131.621C328.481 132.105 328.885 132.479 329.398 132.743C329.926 132.992 330.542 133.117 331.246 133.117C331.877 133.117 332.427 133.022 332.896 132.831C333.38 132.64 333.82 132.354 334.216 131.973L336.042 133.953C335.499 134.569 334.817 135.046 333.996 135.383C333.175 135.706 332.229 135.867 331.158 135.867Z" fill="white"/>
<path d="M390.289 463V456.708L391.103 458.864L384.327 447.6H388.111L393.303 456.246H391.125L396.339 447.6H399.837L393.061 458.864L393.853 456.708V463H390.289ZM406.907 463V460.69L406.687 460.184V456.048C406.687 455.315 406.459 454.743 406.005 454.332C405.565 453.921 404.883 453.716 403.959 453.716C403.328 453.716 402.705 453.819 402.089 454.024C401.487 454.215 400.974 454.479 400.549 454.816L399.317 452.418C399.962 451.963 400.739 451.611 401.649 451.362C402.558 451.113 403.482 450.988 404.421 450.988C406.225 450.988 407.625 451.413 408.623 452.264C409.62 453.115 410.119 454.442 410.119 456.246V463H406.907ZM403.299 463.176C402.375 463.176 401.583 463.022 400.923 462.714C400.263 462.391 399.757 461.959 399.405 461.416C399.053 460.873 398.877 460.265 398.877 459.59C398.877 458.886 399.045 458.27 399.383 457.742C399.735 457.214 400.285 456.803 401.033 456.51C401.781 456.202 402.756 456.048 403.959 456.048H407.105V458.05H404.333C403.526 458.05 402.969 458.182 402.661 458.446C402.367 458.71 402.221 459.04 402.221 459.436C402.221 459.876 402.389 460.228 402.727 460.492C403.079 460.741 403.555 460.866 404.157 460.866C404.729 460.866 405.242 460.734 405.697 460.47C406.151 460.191 406.481 459.788 406.687 459.26L407.215 460.844C406.965 461.607 406.511 462.186 405.851 462.582C405.191 462.978 404.34 463.176 403.299 463.176ZM418.065 463.176C416.671 463.176 415.586 462.824 414.809 462.12C414.031 461.401 413.643 460.338 413.643 458.93V448.546H417.075V458.886C417.075 459.385 417.207 459.773 417.471 460.052C417.735 460.316 418.094 460.448 418.549 460.448C419.091 460.448 419.553 460.301 419.935 460.008L420.859 462.428C420.507 462.677 420.081 462.868 419.583 463C419.099 463.117 418.593 463.176 418.065 463.176ZM411.817 454.068V451.428H420.023V454.068H411.817ZM422.785 463V451.164H426.217V463H422.785ZM429.402 463V451.164H432.68V454.508L432.218 453.54C432.57 452.704 433.135 452.073 433.912 451.648C434.69 451.208 435.636 450.988 436.75 450.988V454.156C436.604 454.141 436.472 454.134 436.354 454.134C436.237 454.119 436.112 454.112 435.98 454.112C435.042 454.112 434.279 454.383 433.692 454.926C433.12 455.454 432.834 456.283 432.834 457.412V463H429.402ZM438.813 463V451.164H442.245V463H438.813ZM460.588 450.988C461.526 450.988 462.355 451.179 463.074 451.56C463.807 451.927 464.379 452.499 464.79 453.276C465.215 454.039 465.428 455.021 465.428 456.224V463H461.996V456.752C461.996 455.799 461.798 455.095 461.402 454.64C461.006 454.185 460.448 453.958 459.73 453.958C459.231 453.958 458.784 454.075 458.388 454.31C457.992 454.53 457.684 454.867 457.464 455.322C457.244 455.777 457.134 456.356 457.134 457.06V463H453.702V456.752C453.702 455.799 453.504 455.095 453.108 454.64C452.726 454.185 452.176 453.958 451.458 453.958C450.959 453.958 450.512 454.075 450.116 454.31C449.72 454.53 449.412 454.867 449.192 455.322C448.972 455.777 448.862 456.356 448.862 457.06V463H445.43V451.164H448.708V454.398L448.092 453.452C448.502 452.645 449.082 452.037 449.83 451.626C450.592 451.201 451.458 450.988 452.426 450.988C453.511 450.988 454.457 451.267 455.264 451.824C456.085 452.367 456.628 453.203 456.892 454.332L455.682 454.002C456.078 453.078 456.708 452.345 457.574 451.802C458.454 451.259 459.458 450.988 460.588 450.988ZM468.504 463V451.164H471.936V463H468.504ZM482.315 450.988C483.254 450.988 484.09 451.179 484.823 451.56C485.571 451.927 486.158 452.499 486.583 453.276C487.008 454.039 487.221 455.021 487.221 456.224V463H483.789V456.752C483.789 455.799 483.576 455.095 483.151 454.64C482.74 454.185 482.154 453.958 481.391 453.958C480.848 453.958 480.357 454.075 479.917 454.31C479.492 454.53 479.154 454.875 478.905 455.344C478.67 455.813 478.553 456.415 478.553 457.148V463H475.121V451.164H478.399V454.442L477.783 453.452C478.208 452.66 478.817 452.051 479.609 451.626C480.401 451.201 481.303 450.988 482.315 450.988ZM490.332 463V451.164H493.764V463H490.332ZM412.3 490V483.708L413.114 485.864L406.338 474.6H410.122L415.314 483.246H413.136L418.35 474.6H421.848L415.072 485.864L415.864 483.708V490H412.3ZM427.418 490.176C426.157 490.176 425.035 489.912 424.052 489.384C423.084 488.856 422.314 488.137 421.742 487.228C421.185 486.304 420.906 485.255 420.906 484.082C420.906 482.894 421.185 481.845 421.742 480.936C422.314 480.012 423.084 479.293 424.052 478.78C425.035 478.252 426.157 477.988 427.418 477.988C428.665 477.988 429.779 478.252 430.762 478.78C431.745 479.293 432.515 480.005 433.072 480.914C433.629 481.823 433.908 482.879 433.908 484.082C433.908 485.255 433.629 486.304 433.072 487.228C432.515 488.137 431.745 488.856 430.762 489.384C429.779 489.912 428.665 490.176 427.418 490.176ZM427.418 487.36C427.99 487.36 428.503 487.228 428.958 486.964C429.413 486.7 429.772 486.326 430.036 485.842C430.3 485.343 430.432 484.757 430.432 484.082C430.432 483.393 430.3 482.806 430.036 482.322C429.772 481.838 429.413 481.464 428.958 481.2C428.503 480.936 427.99 480.804 427.418 480.804C426.846 480.804 426.333 480.936 425.878 481.2C425.423 481.464 425.057 481.838 424.778 482.322C424.514 482.806 424.382 483.393 424.382 484.082C424.382 484.757 424.514 485.343 424.778 485.842C425.057 486.326 425.423 486.7 425.878 486.964C426.333 487.228 426.846 487.36 427.418 487.36ZM429.596 476.536C429.171 476.536 428.811 476.397 428.518 476.118C428.225 475.839 428.078 475.473 428.078 475.018C428.078 474.563 428.225 474.197 428.518 473.918C428.811 473.639 429.171 473.5 429.596 473.5C430.021 473.5 430.381 473.639 430.674 473.918C430.982 474.197 431.136 474.563 431.136 475.018C431.136 475.473 430.982 475.839 430.674 476.118C430.381 476.397 430.021 476.536 429.596 476.536ZM425.152 476.536C424.727 476.536 424.36 476.397 424.052 476.118C423.759 475.839 423.612 475.473 423.612 475.018C423.612 474.563 423.759 474.197 424.052 473.918C424.36 473.639 424.727 473.5 425.152 473.5C425.577 473.5 425.937 473.639 426.23 473.918C426.523 474.197 426.67 474.563 426.67 475.018C426.67 475.473 426.523 475.839 426.23 476.118C425.937 476.397 425.577 476.536 425.152 476.536ZM443.396 477.988C444.335 477.988 445.171 478.179 445.904 478.56C446.652 478.927 447.239 479.499 447.664 480.276C448.089 481.039 448.302 482.021 448.302 483.224V490H444.87V483.752C444.87 482.799 444.657 482.095 444.232 481.64C443.821 481.185 443.235 480.958 442.472 480.958C441.929 480.958 441.438 481.075 440.998 481.31C440.573 481.53 440.235 481.875 439.986 482.344C439.751 482.813 439.634 483.415 439.634 484.148V490H436.202V478.164H439.48V481.442L438.864 480.452C439.289 479.66 439.898 479.051 440.69 478.626C441.482 478.201 442.384 477.988 443.396 477.988ZM457.373 490.176C456.024 490.176 454.836 489.912 453.809 489.384C452.797 488.856 452.012 488.137 451.455 487.228C450.898 486.304 450.619 485.255 450.619 484.082C450.619 482.894 450.89 481.845 451.433 480.936C451.99 480.012 452.746 479.293 453.699 478.78C454.652 478.252 455.73 477.988 456.933 477.988C458.092 477.988 459.133 478.237 460.057 478.736C460.996 479.22 461.736 479.924 462.279 480.848C462.822 481.757 463.093 482.85 463.093 484.126C463.093 484.258 463.086 484.412 463.071 484.588C463.056 484.749 463.042 484.903 463.027 485.05H453.413V483.048H461.223L459.903 483.642C459.903 483.026 459.778 482.491 459.529 482.036C459.28 481.581 458.935 481.229 458.495 480.98C458.055 480.716 457.542 480.584 456.955 480.584C456.368 480.584 455.848 480.716 455.393 480.98C454.953 481.229 454.608 481.589 454.359 482.058C454.11 482.513 453.985 483.055 453.985 483.686V484.214C453.985 484.859 454.124 485.431 454.403 485.93C454.696 486.414 455.1 486.788 455.613 487.052C456.141 487.301 456.757 487.426 457.461 487.426C458.092 487.426 458.642 487.331 459.111 487.14C459.595 486.949 460.035 486.663 460.431 486.282L462.257 488.262C461.714 488.878 461.032 489.355 460.211 489.692C459.39 490.015 458.444 490.176 457.373 490.176ZM470.218 490.176C468.825 490.176 467.739 489.824 466.962 489.12C466.185 488.401 465.796 487.338 465.796 485.93V475.546H469.228V485.886C469.228 486.385 469.36 486.773 469.624 487.052C469.888 487.316 470.247 487.448 470.702 487.448C471.245 487.448 471.707 487.301 472.088 487.008L473.012 489.428C472.66 489.677 472.235 489.868 471.736 490C471.252 490.117 470.746 490.176 470.218 490.176ZM463.97 481.068V478.428H472.176V481.068H463.97Z" fill="white"/>
<g clip-path="url(#clip0_679_102)">
<path d="M206.816 96.8623L196.44 83.2234L194.647 87.8802L173.257 79.6554L170.383 87.1211L191.769 95.3553L189.973 100.021L206.816 96.8623Z" stroke="#82026F" stroke-width="2" stroke-linecap="round" stroke-linejoin="round"/>
</g>
<path d="M331.336 423.317L321.645 409.184L319.625 413.746L298.666 404.478L295.428 411.793L316.382 421.071L314.358 425.642L331.336 423.317Z" stroke="#82026F" stroke-width="2" stroke-linecap="round" stroke-linejoin="round"/>
<path d="M86.0312 117.286H56.25C55.5594 117.286 55 116.742 55 116.071C55 115.401 55.5594 114.857 56.25 114.857H86.25C86.9406 114.857 87.5 114.314 87.5 113.643C87.5 111.631 85.8211 110 83.75 110H55C52.2383 110 50 112.174 50 114.857V139.143C50 141.826 52.2383 144 55 144H86.0312C88.2203 144 90 142.366 90 140.357V120.929C90 118.92 88.2203 117.286 86.0312 117.286ZM82.5 133.071C81.1195 133.071 80 131.984 80 130.643C80 129.302 81.1195 128.214 82.5 128.214C83.8805 128.214 85 129.302 85 130.643C85 131.984 83.8805 133.071 82.5 133.071Z" fill="white"/>
<path d="M341.75 165.25H336.75V160.25C336.75 159.562 336.188 159 335.5 159H333C332.312 159 331.75 159.562 331.75 160.25V165.25H326.75C326.062 165.25 325.5 165.812 325.5 166.5V169C325.5 169.688 326.062 170.25 326.75 170.25H331.75V175.25C331.75 175.938 332.312 176.5 333 176.5H335.5C336.188 176.5 336.75 175.938 336.75 175.25V170.25H341.75C342.438 170.25 343 169.688 343 169V166.5C343 165.812 342.438 165.25 341.75 165.25ZM310.5 169C316.023 169 320.5 164.523 320.5 159C320.5 153.477 316.023 149 310.5 149C304.977 149 300.5 153.477 300.5 159C300.5 164.523 304.977 169 310.5 169ZM317.5 171.5H316.195C314.461 172.297 312.531 172.75 310.5 172.75C308.469 172.75 306.547 172.297 304.805 171.5H303.5C297.703 171.5 293 176.203 293 182V185.25C293 187.32 294.68 189 296.75 189H324.25C326.32 189 328 187.32 328 185.25V182C328 176.203 323.297 171.5 317.5 171.5Z" fill="white"/>
<path d="M440 436.5C441.693 436.5 455.274 428.718 455.274 419.534V399.504C451.267 399.503 445.133 397.5 440 397.5C434.867 397.5 428.723 399.503 424.726 399.503V419.533C424.726 428.719 438.307 436.5 440 436.5Z" stroke="white" stroke-width="2" stroke-linecap="round" stroke-linejoin="round"/>
<path d="M432.135 414.997L437.378 420.24L447.865 409.754" stroke="white" stroke-width="2" stroke-linecap="round" stroke-linejoin="round"/>
<g clip-path="url(#clip1_679_102)">
<path d="M247.162 262.801L261.469 253.367L256.944 251.265L266.591 230.478L259.335 227.107L249.679 247.89L245.145 245.783L247.162 262.801Z" stroke="#82026F" stroke-width="2" stroke-linecap="round" stroke-linejoin="round"/>
</g>
<defs>
<clipPath id="clip0_679_102">
<rect width="24" height="50" fill="white" transform="translate(164.546 95.845) rotate(-68.9423)"/>
</clipPath>
<clipPath id="clip1_679_102">
<rect width="24" height="50" fill="white" transform="translate(255.068 216) rotate(24.9205)"/>
</clipPath>
</defs>
</svg>
