<svg width="70" height="35" viewBox="0 0 70 35" fill="none" xmlns="http://www.w3.org/2000/svg">
<rect width="69.2987" height="35" rx="17.5" fill="#F9F9F9"/>
<path d="M14.8908 10.3636H17.6465L20.2999 15.375H20.4135L23.0669 10.3636H25.8226L21.5783 17.8864V22H19.1351V17.8864L14.8908 10.3636ZM27.922 22.1648C27.3652 22.1648 26.869 22.0682 26.4334 21.875C25.9978 21.678 25.6531 21.3883 25.3993 21.0057C25.1493 20.6193 25.0243 20.1383 25.0243 19.5625C25.0243 19.0777 25.1133 18.6705 25.2914 18.3409C25.4694 18.0114 25.7118 17.7462 26.0186 17.5455C26.3255 17.3447 26.6739 17.1932 27.0641 17.0909C27.458 16.9886 27.8709 16.9167 28.3027 16.875C28.8103 16.822 29.2194 16.7727 29.53 16.7273C29.8406 16.678 30.066 16.6061 30.2061 16.5114C30.3463 16.4167 30.4164 16.2765 30.4164 16.0909V16.0568C30.4164 15.697 30.3027 15.4186 30.0755 15.2216C29.852 15.0246 29.5338 14.9261 29.1209 14.9261C28.6853 14.9261 28.3387 15.0227 28.0811 15.2159C27.8236 15.4053 27.6531 15.6439 27.5698 15.9318L25.3311 15.75C25.4448 15.2197 25.6683 14.7614 26.0016 14.375C26.3349 13.9848 26.7648 13.6856 27.2914 13.4773C27.8217 13.2652 28.4353 13.1591 29.1323 13.1591C29.6171 13.1591 30.0811 13.2159 30.5243 13.3295C30.9713 13.4432 31.3671 13.6193 31.7118 13.858C32.0603 14.0966 32.3349 14.4034 32.5357 14.7784C32.7364 15.1496 32.8368 15.5947 32.8368 16.1136V22H30.5414V20.7898H30.4732C30.333 21.0625 30.1455 21.303 29.9107 21.5114C29.6758 21.7159 29.3936 21.8769 29.0641 21.9943C28.7345 22.108 28.3539 22.1648 27.922 22.1648ZM28.6152 20.4943C28.9713 20.4943 29.2857 20.4242 29.5584 20.2841C29.8311 20.1402 30.0451 19.947 30.2005 19.7045C30.3558 19.4621 30.4334 19.1875 30.4334 18.8807V17.9545C30.3576 18.0038 30.2535 18.0492 30.1209 18.0909C29.9921 18.1288 29.8463 18.1648 29.6834 18.1989C29.5205 18.2292 29.3576 18.2576 29.1948 18.2841C29.0319 18.3068 28.8842 18.3277 28.7516 18.3466C28.4675 18.3883 28.2194 18.4545 28.0073 18.5455C27.7951 18.6364 27.6304 18.7595 27.513 18.9148C27.3955 19.0663 27.3368 19.2557 27.3368 19.483C27.3368 19.8125 27.4561 20.0644 27.6948 20.2386C27.9372 20.4091 28.244 20.4943 28.6152 20.4943ZM39.3567 13.2727V15.0909H34.101V13.2727H39.3567ZM35.2942 11.1818H37.7147V19.3182C37.7147 19.5417 37.7487 19.7159 37.8169 19.8409C37.8851 19.9621 37.9798 20.0473 38.101 20.0966C38.226 20.1458 38.37 20.1705 38.5328 20.1705C38.6465 20.1705 38.7601 20.161 38.8737 20.142C38.9874 20.1193 39.0745 20.1023 39.1351 20.0909L39.5158 21.892C39.3946 21.9299 39.2241 21.9735 39.0044 22.0227C38.7847 22.0758 38.5177 22.108 38.2033 22.1193C37.62 22.142 37.1086 22.0644 36.6692 21.8864C36.2336 21.7083 35.8946 21.4318 35.6522 21.0568C35.4097 20.6818 35.2904 20.2083 35.2942 19.6364V11.1818ZM40.9334 22V13.2727H43.3539V22H40.9334ZM45.2928 22V13.2727H47.6394V14.7955H47.7303C47.8894 14.2538 48.1564 13.8447 48.5314 13.5682C48.9064 13.2879 49.3382 13.1477 49.8269 13.1477C49.9481 13.1477 50.0788 13.1553 50.2189 13.1705C50.3591 13.1856 50.4822 13.2064 50.5882 13.233V15.3807C50.4746 15.3466 50.3174 15.3163 50.1166 15.2898C49.9159 15.2633 49.7322 15.25 49.5655 15.25C49.2094 15.25 48.8913 15.3277 48.611 15.483C48.3344 15.6345 48.1148 15.8466 47.9519 16.1193C47.7928 16.392 47.7132 16.7064 47.7132 17.0625V22H45.2928Z" fill="black"/>
</svg>
